<?xml version="1.0" encoding="UTF-8"?>
<svg version="1.1" xmlns="http://www.w3.org/2000/svg" width="820" height="181">
<path d="M0 0 C7.24754993 5.40271904 11.10061264 11.82823029 13.1484375 20.6015625 C13.75918771 26.11169703 13.69052165 31.66371767 13.66485786 37.20059395 C13.6520914 39.97276521 13.66364066 42.74396053 13.68089294 45.51609802 C13.70745485 50.40304453 13.71319389 55.28974694 13.71179199 60.17675781 C13.70955426 67.99985918 13.72391316 75.82265898 13.76737785 83.64564323 C13.77713888 86.36097851 13.76854119 89.07582841 13.75868225 91.79115295 C13.76990347 100.18755271 13.91062354 107.70851987 17.1484375 115.6015625 C17.4784375 116.5915625 17.8084375 117.5815625 18.1484375 118.6015625 C12.73866541 120.8516447 7.28415685 122.98620441 1.7734375 124.9765625 C0.79632813 125.33492187 -0.18078125 125.69328125 -1.1875 126.0625 C-3.8515625 126.6015625 -3.8515625 126.6015625 -6.07421875 125.84375 C-11.32535301 122.17372649 -14.71162846 115.83202825 -15.8515625 109.6015625 C-15.94426647 106.86723835 -15.98496996 104.1581609 -15.97753906 101.42407227 C-15.9794072 100.60246613 -15.98127533 99.78085999 -15.98320007 98.93435669 C-15.98719871 97.15284602 -15.98927842 95.37133025 -15.98966217 93.58981514 C-15.99308233 89.8019285 -16.01444734 86.01421281 -16.03489304 82.22638607 C-16.07290338 75.17588427 -16.10417446 68.1255672 -16.10205078 61.07495117 C-16.1012642 56.16825816 -16.12460096 51.26219404 -16.1639328 46.35566521 C-16.17439968 44.48700728 -16.17591177 42.61827684 -16.16828156 40.74960518 C-16.15866916 38.13519201 -16.1798212 35.52268797 -16.20800781 32.90844727 C-16.19781113 32.13789505 -16.18761444 31.36734283 -16.17710876 30.57344055 C-16.25396572 26.59633766 -16.69732017 24.79539978 -19.20428467 21.6448822 C-23.47441586 18.34895191 -27.60227236 18.02711188 -32.8515625 18.6015625 C-37.17381746 20.16813035 -37.17381746 20.16813035 -39.8515625 23.6015625 C-39.99701033 25.53586864 -40.07875933 27.47504894 -40.1328125 29.4140625 C-40.16963135 30.69047607 -40.2064502 31.96688965 -40.24438477 33.28198242 C-40.28038369 34.72183565 -40.31609978 36.16169597 -40.3515625 37.6015625 C-40.39176847 39.10197147 -40.43205423 40.60237831 -40.47241211 42.1027832 C-41.11664858 66.93117482 -41.4571008 91.76820389 -41.8515625 116.6015625 C-46.12027721 117.94174555 -50.39186314 119.27253359 -54.6640625 120.6015625 C-55.87900391 120.983125 -57.09394531 121.3646875 -58.34570312 121.7578125 C-59.50908203 122.11875 -60.67246094 122.4796875 -61.87109375 122.8515625 C-63.48141479 123.35429687 -63.48141479 123.35429687 -65.12426758 123.8671875 C-67.8515625 124.6015625 -67.8515625 124.6015625 -70.8515625 124.6015625 C-70.85076691 123.35985794 -70.84997131 122.11815338 -70.84915161 120.83882141 C-70.84555039 109.14084759 -70.87331335 97.44331338 -70.9318409 85.74548054 C-70.96092178 79.73133808 -70.97892389 73.71758625 -70.97167969 67.70336914 C-70.96509583 61.8999851 -70.98751873 56.09737359 -71.03011703 50.2941494 C-71.04126493 48.07939592 -71.04193334 45.86456426 -71.03198624 43.64980507 C-71.0198424 40.54863707 -71.04484337 37.44983746 -71.07861328 34.34887695 C-71.06639236 33.43177948 -71.05417145 32.51468201 -71.0415802 31.5697937 C-71.07911053 26.92464587 -71.07911053 26.92464587 -73.14861679 22.91238976 C-76.2532409 20.21825111 -78.74526036 18.92719209 -82.8515625 19.0390625 C-83.6559375 19.03777344 -84.4603125 19.03648438 -85.2890625 19.03515625 C-88.94057233 19.84227351 -90.99994434 21.17355838 -93.8515625 23.6015625 C-94.46588272 26.50520399 -94.66245731 28.59548617 -94.60864258 31.50024414 C-94.61766602 32.29270538 -94.62668945 33.08516663 -94.63598633 33.90164185 C-94.65899203 36.52234386 -94.63998608 39.14101181 -94.62109375 41.76171875 C-94.62981128 43.59054546 -94.6413022 45.41936086 -94.65544128 47.24815369 C-94.68587808 52.0692027 -94.68139067 56.88958859 -94.66882324 61.71069336 C-94.65943452 67.53507264 -94.68797208 73.35935768 -94.71388531 79.18366909 C-94.7337693 83.72362265 -94.74721764 88.26323953 -94.73970032 92.80323792 C-94.7365342 101.12266271 -94.82634052 109.32929493 -95.8515625 117.6015625 C-121.05314353 125.6015625 -121.05314353 125.6015625 -126.8515625 125.6015625 C-126.85487265 125.05472211 -126.85818279 124.50788172 -126.86159325 123.94447041 C-126.94285164 110.63202964 -127.03507806 97.31970365 -127.13908958 84.00742054 C-127.18905767 77.56966626 -127.23538786 71.13192843 -127.2734375 64.6940918 C-127.31028355 58.48245072 -127.356642 52.2709471 -127.40962601 46.05942345 C-127.4281735 43.68836564 -127.44328014 41.31727837 -127.45490646 38.94617653 C-127.47176252 35.62779253 -127.50079672 32.3097236 -127.53271484 28.99145508 C-127.53487503 28.00890244 -127.53703522 27.02634979 -127.53926086 26.01402283 C-127.61573705 19.79927207 -128.35248937 15.85017219 -131.8515625 10.6015625 C-131.8515625 9.2815625 -131.8515625 7.9615625 -131.8515625 6.6015625 C-129.02644635 5.27084598 -126.19026797 3.96550662 -123.3515625 2.6640625 C-122.56007813 2.29087891 -121.76859375 1.91769531 -120.953125 1.53320312 C-115.85846396 -0.78445005 -111.4989164 -2.53845454 -105.8515625 -2.3984375 C-103.35934398 -0.59341159 -101.79637121 0.77377123 -99.8515625 3.0390625 C-99.11873047 3.83280273 -99.11873047 3.83280273 -98.37109375 4.64257812 C-97.1763469 5.94274381 -96.01083892 7.26967323 -94.8515625 8.6015625 C-94.366875 8.21484375 -93.8821875 7.828125 -93.3828125 7.4296875 C-87.58252729 2.92331207 -81.3685714 -1.66507078 -73.8515625 -2.3984375 C-73.21863281 -2.46160156 -72.58570313 -2.52476563 -71.93359375 -2.58984375 C-64.54533926 -2.99521701 -57.40118865 -1.17046996 -51.515625 3.42578125 C-50.1781902 4.65134883 -48.87031016 5.91058218 -47.60546875 7.2109375 C-45.70222354 9.01575175 -45.70222354 9.01575175 -41.8515625 8.6015625 C-39.49740438 6.98568587 -39.49740438 6.98568587 -37.1640625 4.8515625 C-26.38741219 -3.98278456 -12.84040951 -7.63599104 0 0 Z " fill="#E20C7B" transform="translate(131.8515625,27.3984375)"/>
<path d="M0 0 C2.23828125 2.43359375 2.23828125 2.43359375 4.3125 5.4375 C5.00988281 6.42621094 5.70726562 7.41492188 6.42578125 8.43359375 C8 11 8 11 8 13 C8.58265625 12.48050781 9.1653125 11.96101563 9.765625 11.42578125 C19.55024698 3.10269872 28.37942347 -0.90991701 41.3828125 -0.41796875 C49.94800948 0.57174624 57.92383758 3.74475069 64 10 C69.41735865 17.24768954 72.09238384 22.48692664 72.18945312 31.51831055 C72.20189308 32.48772079 72.20189308 32.48772079 72.21458435 33.47671509 C72.23194953 34.87839536 72.24712592 36.28010409 72.26036072 37.68182945 C72.28154086 39.91741944 72.30856346 42.15287368 72.33703613 44.38838196 C72.39664055 49.15470027 72.44862534 53.92108698 72.5 58.6875 C72.55974716 64.17248488 72.62277113 69.65740713 72.69187927 75.14228249 C72.71787509 77.31364 72.7390508 79.48500569 72.7598877 81.65641785 C72.84005007 88.84215371 73.04037835 96.01410873 73.41992188 103.19067383 C73.45337456 103.8907767 73.48682724 104.59087957 73.52129364 105.31219769 C73.83407859 110.67367699 74.93616011 115.0647307 77 120 C71.85379139 122.49996697 66.61853726 124.57282736 61.1875 126.375 C60.10855469 126.73335938 59.02960938 127.09171875 57.91796875 127.4609375 C54.52324728 128.0880748 53.83815225 127.81185962 51 126 C42.23586669 117.16742181 42.98750644 106.65403873 43.01953125 95.10546875 C42.99781824 93.18495936 42.97250286 91.26448765 42.94377136 89.34407043 C42.87558428 84.3175001 42.84469983 79.29149725 42.82537842 74.26452637 C42.79163739 66.20281898 42.71647166 58.14184486 42.61130333 50.08077431 C42.58248187 47.27434681 42.57937201 44.46871171 42.5785675 41.66215515 C42.56220886 39.93906736 42.54493895 38.2159879 42.52661133 36.49291992 C42.53662674 35.33092827 42.53662674 35.33092827 42.54684448 34.14546204 C42.45931959 28.95323268 41.27550568 26.00382659 38 22 C33.29478235 18.31697723 29.02583997 18.44438829 23.23828125 18.58203125 C18.63372376 19.17634687 15.29030397 20.71780023 12 24 C8.69796027 28.335768 8.55813943 32.29457269 8.56762695 37.55395508 C8.5574353 38.40324585 8.54724365 39.25253662 8.53674316 40.12756348 C8.50663348 42.92495335 8.49735033 45.72200067 8.48828125 48.51953125 C8.47143306 50.46295813 8.45328263 52.40637413 8.43388367 54.34977722 C8.38639278 59.45755613 8.35657745 64.56529089 8.33044434 69.67321777 C8.30063429 74.88835366 8.25410545 80.10333746 8.20898438 85.31835938 C8.12296158 95.54549334 8.05561166 105.77265862 8 116 C4.05097186 117.71360021 0.09994188 119.42247068 -3.85302734 121.12695312 C-5.19799169 121.70768151 -6.54239653 122.28970745 -7.88623047 122.87304688 C-9.81593154 123.71043745 -11.74758484 124.54316833 -13.6796875 125.375 C-14.84226074 125.87773437 -16.00483398 126.38046875 -17.20263672 126.8984375 C-20 128 -20 128 -22 128 C-22.61755669 111.61678852 -23.06448668 95.24423615 -23.160923 78.84923172 C-23.17583439 76.33870864 -23.19348109 73.82821825 -23.21188354 71.31771851 C-23.31099452 57.51663717 -23.31099452 57.51663717 -23.32592773 50.8190918 C-23.33603472 46.55445366 -23.36534805 42.29031644 -23.40724754 38.025877 C-23.41943989 36.42847922 -23.42470068 34.83101091 -23.42244911 33.23356819 C-23.41329164 24.65937211 -23.65274078 17.66403698 -28 10 C-24.30175516 6.13183558 -20.0434662 4.70899081 -15.125 2.75 C-14.22652344 2.37359375 -13.32804687 1.9971875 -12.40234375 1.609375 C-11.52964844 1.25875 -10.65695312 0.908125 -9.7578125 0.546875 C-8.9652002 0.22557617 -8.17258789 -0.09572266 -7.35595703 -0.42675781 C-4.51448891 -1.11813265 -2.77418467 -0.88675606 0 0 Z " fill="#E20C7B" transform="translate(309,25)"/>
<path d="M0 0 C1.81108418 2.00687706 3.29773484 3.85714306 4.8125 6.0625 C5.42254883 6.91424805 5.42254883 6.91424805 6.04492188 7.78320312 C7.04255162 9.17988477 8.02301533 10.58879991 9 12 C9.46148438 11.62488281 9.92296875 11.24976563 10.3984375 10.86328125 C21.76523482 1.9450628 31.65314325 -1.03835559 46 0 C56.05835269 2.3500824 63.36086745 8.23378337 68.7734375 16.8515625 C69.17820312 17.56054688 69.58296875 18.26953125 70 19 C70.36351562 19.62648438 70.72703125 20.25296875 71.1015625 20.8984375 C73.26716899 25.96407354 73.1458883 31.42772348 73.1418457 36.8503418 C73.14532013 37.61383438 73.14879456 38.37732697 73.15237427 39.16395569 C73.15969639 40.81390858 73.16506054 42.46387109 73.16866493 44.11383629 C73.17587809 46.73440226 73.19158139 49.35478612 73.21000671 51.97529602 C73.26224204 59.42352775 73.31039977 66.87165746 73.32592773 74.32006836 C73.33606608 78.88540164 73.3655356 83.45027155 73.40724754 88.01542091 C73.41947741 89.7451405 73.42469361 91.47492575 73.42244911 93.20468712 C73.41300653 102.85816978 73.68650231 111.11544674 78 120 C72.58430496 122.2374766 67.13665329 124.38430459 61.625 126.375 C60.64789062 126.73335938 59.67078125 127.09171875 58.6640625 127.4609375 C56 128 56 128 53.84375 127.33984375 C51.74678821 125.81599228 50.40332891 124.27995031 48.875 122.1875 C48.37742187 121.52105469 47.87984375 120.85460937 47.3671875 120.16796875 C44.29104377 115.29008369 43.70499092 111.00798853 43.71289062 105.32324219 C43.70605759 104.56643661 43.69922455 103.80963104 43.69218445 103.02989197 C43.67863192 101.39194439 43.6695559 99.75395493 43.66447449 98.11595917 C43.65615422 95.51695726 43.63561819 92.91830151 43.61193848 90.31939697 C43.56378517 84.79631639 43.53083308 79.27320085 43.5 73.75 C43.46423092 67.3604174 43.42210904 60.97100341 43.36405945 54.58158112 C43.34413104 52.03310319 43.33569853 49.48475748 43.32775879 46.93621826 C43.27026897 38.19739338 42.78884395 30.36653185 40 22 C33.75273714 18.25164228 27.08295551 18.37195468 20 19 C14.96640367 21.3843351 11.50003213 24.99993573 9 30 C8.8774671 32.71477315 8.81429183 35.40557006 8.79467773 38.12158203 C8.78477814 38.96068115 8.77487854 39.79978027 8.76467896 40.66430664 C8.73302208 43.44544629 8.70829 46.22660304 8.68359375 49.0078125 C8.66302784 50.93309988 8.64203146 52.85838271 8.62062073 54.78366089 C8.56536259 59.85695718 8.51596983 64.93029447 8.46777344 70.00366211 C8.41758571 75.17825988 8.36188542 80.35279794 8.30664062 85.52734375 C8.1990133 95.68484485 8.0975785 105.84239774 8 116 C4.21289539 117.71612092 0.42259036 119.42489841 -3.37084961 121.12695312 C-4.66081696 121.70697617 -5.94988891 122.28899489 -7.23803711 122.87304688 C-9.08996398 123.71230159 -10.94499439 124.54432208 -12.80078125 125.375 C-13.91622314 125.87773437 -15.03166504 126.38046875 -16.1809082 126.8984375 C-19 128 -19 128 -22 128 C-22.00146656 127.45592499 -22.00293312 126.91184998 -22.00444412 126.35128784 C-22.04156161 113.08780247 -22.10089222 99.82457479 -22.18390274 86.56129456 C-22.2233802 80.14713531 -22.25556761 73.73311341 -22.27099609 67.31884766 C-22.28616053 61.1265474 -22.3206033 54.93462474 -22.36830902 48.74249268 C-22.38312483 46.3822966 -22.39104113 44.02204662 -22.39188385 41.6618042 C-22.39425453 38.35095146 -22.42134443 35.04114133 -22.45410156 31.73046875 C-22.4490712 30.75870193 -22.44404083 29.78693512 -22.43885803 28.78572083 C-22.52288225 23.28199751 -23.28857994 19.42461316 -26.11977768 14.66572571 C-27.31535324 12.40322804 -27.31336155 10.5068924 -27 8 C-23.89660564 6.6856685 -20.79215432 5.37385219 -17.6875 4.0625 C-16.80642578 3.68931641 -15.92535156 3.31613281 -15.01757812 2.93164062 C-14.17001953 2.57392578 -13.32246094 2.21621094 -12.44921875 1.84765625 C-11.66893311 1.51773682 -10.88864746 1.18781738 -10.0847168 0.84790039 C-6.19652273 -0.73351406 -4.01332377 -1.4457564 0 0 Z " fill="#E10D7B" transform="translate(582,25)"/>
<path d="M0 0 C14.07095388 10.94407524 22.56124214 26.14455246 25.84375 43.5859375 C26.12688089 46.00402836 26.26008523 48.37150568 26.3203125 50.8046875 C26.37058594 51.62710938 26.42085938 52.44953125 26.47265625 53.296875 C27.17420162 72.21053829 20.71697122 88.51772719 8.6015625 102.8359375 C-0.30182922 112.41128331 -12.68309022 117.70658561 -25.68676758 118.27709961 C-40.9085869 118.4814072 -53.4080261 112.47116888 -64.33203125 102.171875 C-77.8467871 88.54468358 -83.88399429 71.43570635 -84.1171875 52.4921875 C-84.02278843 33.83263725 -78.62494427 17.83046985 -65.40234375 4.43359375 C-46.81710916 -13.51169015 -20.99643679 -14.70482159 0 0 Z M-52.6796875 13.8046875 C-59.35650764 23.19063275 -58.98953669 35.09245486 -57.32958984 46.13330078 C-53.36832014 65.25297199 -42.5930717 83.61544381 -26.37109375 94.7578125 C-21.27790166 97.91018081 -16.60001097 98.62056247 -10.6796875 97.8046875 C-5.68731368 95.54398992 -3.57326809 92.65713116 -1.42578125 87.80078125 C4.1076505 72.9966785 -1.60745299 55.50613973 -7.6796875 41.8046875 C-11.48210332 33.55688175 -16.37374318 27.29903437 -22.6796875 20.8046875 C-23.27910156 20.13179687 -23.87851563 19.45890625 -24.49609375 18.765625 C-29.51015444 13.2978558 -35.31839842 9.75127617 -42.8671875 9.3046875 C-47.33250263 9.8903026 -49.31725473 10.82434936 -52.6796875 13.8046875 Z " fill="#E20C7B" transform="translate(245.6796875,35.1953125)"/>
<path d="M0 0 C5.35507948 4.38692952 11.17566475 9.61679543 14 16 C12.7648158 19.61344954 10.69173347 21.2619519 7.6484375 23.453125 C6.79765625 24.071875 5.946875 24.690625 5.0703125 25.328125 C4.18085938 25.96234375 3.29140625 26.5965625 2.375 27.25 C1.02921875 28.22453125 1.02921875 28.22453125 -0.34375 29.21875 C-2.5572508 30.8200059 -4.77602097 32.41334601 -7 34 C-11.55667744 29.58952611 -15.45254514 24.80369525 -19.40234375 19.83984375 C-23.90718748 14.91499955 -29.19792473 11.32358087 -35.9375 10.75 C-39.34968981 11.02854611 -41.90239298 11.52159665 -45 13 C-46.32006573 15.16924452 -46.32006573 15.16924452 -47 18 C-47.50144531 19.17949219 -48.00289063 20.35898437 -48.51953125 21.57421875 C-50.2952318 26.30368232 -50.5374421 30.66978452 -50.5 35.6875 C-50.49427979 36.5952417 -50.48855957 37.5029834 -50.48266602 38.43823242 C-49.96634255 58.62700162 -43.11712436 82.39063529 -28.18359375 96.74609375 C-24.36080216 99.76498733 -20.8645634 101.18016901 -16 101 C-11.77234709 97.8997212 -10.33768948 94.96431428 -9 90 C-8.36562177 81.77174114 -8.91328065 73.75789683 -10.5625 65.68359375 C-11 63 -11 63 -11 57 C-1.43 56.34 8.14 55.68 18 55 C18.77798479 65.9231574 19.21403451 76.77781895 19.24023438 87.72827148 C19.25003428 90.19613204 19.2812544 92.66318898 19.3125 95.13085938 C19.42432415 111.65532912 16.90754225 126.84639687 5.25 139.4375 C-0.08439476 144.34472643 -6.61721599 149 -14 149 C-13.80664062 148.44054687 -13.61328125 147.88109375 -13.4140625 147.3046875 C-10.22883247 137.49670197 -8.58720467 127.31988332 -9 117 C-9.64324219 117.20496094 -10.28648437 117.40992188 -10.94921875 117.62109375 C-23.87838007 121.4758651 -36.56607895 122.52999335 -49.125 116.9375 C-63.48142859 109.11085747 -70.1509028 94.63710272 -74.7109375 79.65234375 C-80.43114942 59.66490749 -81.95429533 38.79599061 -71.77734375 19.91015625 C-63.57230805 6.47553736 -52.24722409 -2.72365001 -37 -7 C-36.34386719 -7.19207031 -35.68773437 -7.38414063 -35.01171875 -7.58203125 C-22.85247822 -10.10832006 -10.20508399 -6.63723971 0 0 Z " fill="#E20C7B" transform="translate(473,32)"/>
<path d="M0 0 C0.66257812 0.41121094 1.32515625 0.82242187 2.0078125 1.24609375 C3.00167969 1.84744141 3.00167969 1.84744141 4.015625 2.4609375 C11.32675255 7.40670026 18.11920242 14.8387181 21.0078125 23.24609375 C18.96803667 24.83191353 16.92607942 26.41478283 14.8828125 27.99609375 C14.31304688 28.43953125 13.74328125 28.88296875 13.15625 29.33984375 C9.53345618 32.13927534 5.84594104 34.74956029 2.0078125 37.24609375 C-1.58136869 35.78031335 -3.35596491 33.87832707 -5.6796875 30.80859375 C-6.28167969 30.02613281 -6.88367188 29.24367188 -7.50390625 28.4375 C-8.9921875 26.24609375 -8.9921875 26.24609375 -9.9921875 23.24609375 C-11.79151329 22.17892671 -11.79151329 22.17892671 -13.9921875 21.24609375 C-14.7759375 20.70984375 -15.5596875 20.17359375 -16.3671875 19.62109375 C-19.57288363 17.94191959 -21.41967692 17.71401771 -24.9921875 18.24609375 C-27.55557439 19.72602531 -27.55557439 19.72602531 -28.9921875 22.24609375 C-29.26782011 28.17219496 -25.58183868 32.83762194 -21.9921875 37.24609375 C-17.10626928 42.27086577 -11.70855017 46.49986052 -6.0546875 50.62109375 C5.12850154 58.89694149 15.09600393 68.49391338 19.0078125 82.24609375 C20.3096995 91.88506479 18.49018795 99.24685931 13.0078125 107.24609375 C5.51508987 116.49104122 -4.89058349 124.24129536 -17.03515625 125.58203125 C-31.73503727 125.76463847 -42.05738189 120.07684435 -52.5078125 110.07250977 C-56.37837947 106.28788466 -59.11471262 103.34621158 -60.9921875 98.24609375 C-57.7557017 96.0380615 -54.50106027 93.85842 -51.2421875 91.68359375 C-50.32179688 91.05517578 -49.40140625 90.42675781 -48.453125 89.77929688 C-47.56367187 89.18955078 -46.67421875 88.59980469 -45.7578125 87.9921875 C-44.94086914 87.44232178 -44.12392578 86.89245605 -43.28222656 86.32592773 C-40.9921875 85.24609375 -40.9921875 85.24609375 -38.80175781 85.4765625 C-36.41705587 86.49067212 -35.21511852 87.87785307 -33.4921875 89.80859375 C-27.13411327 96.3679478 -19.37634777 103.19236891 -9.83984375 103.50390625 C-7.24213722 103.14143557 -5.75161413 102.158514 -3.9921875 100.24609375 C-4.73254351 91.15990636 -9.9428221 85.92447692 -16.5078125 79.9609375 C-19.29347194 77.66318547 -22.13173583 75.45004831 -24.9921875 73.24609375 C-52.00926173 51.88257908 -52.00926173 51.88257908 -54.9921875 41.24609375 C-56.05050563 31.54894621 -54.87682462 23.59754406 -49.109375 15.65234375 C-43.89518961 9.44765002 -38.11016328 5.06871037 -30.9921875 1.24609375 C-29.78949219 0.59447266 -29.78949219 0.59447266 -28.5625 -0.0703125 C-19.63907584 -4.26871043 -8.80836673 -4.69671215 0 0 Z " fill="#E20C7B" transform="translate(776.9921875,27.75390625)"/>
<path d="M0 0 C6.06124237 7.29433179 7.2979763 14.84944632 7.22705078 24.04443359 C7.22734283 25.04017395 7.22763489 26.03591431 7.22793579 27.06182861 C7.22654663 30.34078804 7.21100473 33.61951795 7.1953125 36.8984375 C7.19158091 39.17672603 7.18873462 41.45501617 7.18673706 43.73330688 C7.17911217 49.72068741 7.15947341 55.70797042 7.1373291 61.6953125 C7.11684609 67.80858033 7.10773009 73.92186397 7.09765625 80.03515625 C7.07622652 92.02348027 7.0421043 104.01173201 7 116 C3.35552538 117.71629992 -0.29237269 119.42507146 -3.94360352 121.12695312 C-5.18512726 121.70692555 -6.42569747 122.28894376 -7.6652832 122.87304688 C-9.44750801 123.71241266 -11.23347585 124.54381633 -13.01953125 125.375 C-14.09307861 125.87773437 -15.16662598 126.38046875 -16.27270508 126.8984375 C-19 128 -19 128 -22 128 C-22.01030746 126.75687042 -22.02061493 125.51374084 -22.03123474 124.23294067 C-22.1291771 112.4925252 -22.23192991 100.75216026 -22.33933926 89.01182747 C-22.39440038 82.9766527 -22.44779258 76.94147296 -22.49731445 70.90625 C-22.54520711 65.07717779 -22.59755718 59.2481608 -22.65294075 53.41915512 C-22.67325202 51.20014708 -22.69198279 48.98112396 -22.70907402 46.76208878 C-22.73336849 43.6435835 -22.7633862 40.52518015 -22.79467773 37.40673828 C-22.8004332 36.49826645 -22.80618866 35.58979462 -22.81211853 34.65379333 C-22.70809526 22.75495194 -22.70809526 22.75495194 -27 12 C-26.83154297 9.9987793 -26.83154297 9.9987793 -26 8 C-24.28173828 6.82739258 -24.28173828 6.82739258 -22.0703125 5.89453125 C-20.87728516 5.37922852 -20.87728516 5.37922852 -19.66015625 4.85351562 C-18.40525391 4.33821289 -18.40525391 4.33821289 -17.125 3.8125 C-15.88169922 3.27979492 -15.88169922 3.27979492 -14.61328125 2.73632812 C-4.19574456 -1.69827756 -4.19574456 -1.69827756 0 0 Z " fill="#E30B7C" transform="translate(532,25)"/>
<path d="M0 0 C4.97454391 4.82823379 7.11229193 11.07244706 7.36076355 17.87231445 C7.36936397 19.70262888 7.36170323 21.53306855 7.34057617 23.36328125 C7.34123329 24.87196022 7.34123329 24.87196022 7.34190369 26.41111755 C7.33982567 29.7117808 7.31654094 33.01192627 7.29296875 36.3125 C7.2873693 38.61034874 7.28310085 40.90820108 7.28010559 43.20605469 C7.26868441 49.23620598 7.23924053 55.26613842 7.20599365 61.29620361 C7.17523403 67.45655355 7.16158767 73.61693905 7.14648438 79.77734375 C7.11436835 91.85165833 7.06320489 103.92581092 7 116 C4.6315308 117.10551244 2.26303769 118.21097361 -0.10546875 119.31640625 C-0.76800659 119.6256604 -1.43054443 119.93491455 -2.11315918 120.25354004 C-18.71126109 128 -18.71126109 128 -21 128 C-21.57875573 110.68512549 -22.05558846 93.37675041 -22.160923 76.05186462 C-22.17580876 73.63615985 -22.19344443 71.22048966 -22.21188354 68.80480957 C-22.31122185 55.5525647 -22.31122185 55.5525647 -22.32592773 49.22167969 C-22.33601415 45.13512874 -22.36525953 41.04910357 -22.40724754 36.96276093 C-22.41945315 35.4334891 -22.42469816 33.9041434 -22.42244911 32.37482452 C-22.41370533 24.53688411 -22.4611319 18.61745875 -27 12 C-27.03222656 9.7121582 -27.03222656 9.7121582 -26 8 C-24.03808594 6.70385742 -24.03808594 6.70385742 -21.484375 5.60546875 C-20.56269531 5.20779297 -19.64101563 4.81011719 -18.69140625 4.40039062 C-17.72074219 4.00013672 -16.75007812 3.59988281 -15.75 3.1875 C-14.31720703 2.55811523 -14.31720703 2.55811523 -12.85546875 1.91601562 C-4.74276433 -1.50847087 -4.74276433 -1.50847087 0 0 Z " fill="#E20C7C" transform="translate(696,25)"/>
<path d="M0 0 C4.8698462 3.87600003 7.66096409 6.41189169 8.5078125 12.79296875 C8.67283873 18.01329848 8.61226124 22.18404438 6.5 27 C1.92166626 31.57833374 -2.13797344 35.11981373 -8.82421875 35.57421875 C-14.9612554 35.17718311 -20.6408164 32.86055664 -24.9375 28.4375 C-28.86678091 23.01780219 -28.82343114 16.86682881 -27.9375 10.4375 C-26.11331432 5.42707001 -22.96878971 1.45393084 -18.08984375 -0.9375 C-12.27407809 -2.62628858 -5.48767239 -2.77385628 0 0 Z M-22.9375 9.4375 C-24.29448258 13.50844774 -24.46137231 17.18103744 -23.9375 21.4375 C-21.72182289 25.86885421 -19.45686887 28.39302361 -14.9375 30.4375 C-10.35534766 31.86305851 -7.14227705 31.35850214 -2.83984375 29.4921875 C0.42721068 27.68088422 2.61120692 25.85269885 4.0625 22.4375 C4.86019445 17.67094871 5.23195782 12.84087395 3.0703125 8.3984375 C0.2696158 4.86712426 -2.84919404 2.8388241 -7.234375 1.99609375 C-14.44163601 1.64032131 -18.36833054 3.86621504 -22.9375 9.4375 Z " fill="#CE2077" transform="translate(811.9375,1.5625)"/>
<path d="M0 0 C0.66 0 1.32 0 2 0 C2.22118493 30.67324483 1.59003677 61.33373981 1 92 C-3.26871471 93.34018305 -7.54030064 94.67097109 -11.8125 96 C-13.02744141 96.3815625 -14.24238281 96.763125 -15.49414062 97.15625 C-16.65751953 97.5171875 -17.82089844 97.878125 -19.01953125 98.25 C-20.62985229 98.75273437 -20.62985229 98.75273437 -22.27270508 99.265625 C-25 100 -25 100 -28 100 C-28 77.89 -28 55.78 -28 33 C-27.34 33 -26.68 33 -26 33 C-25.67 53.79 -25.34 74.58 -25 96 C-19.28449727 96.3939193 -19.28449727 96.3939193 -15.5 94.5 C-11.97299071 92.98842459 -9.77847486 92.72352623 -6 93 C-6 92.34 -6 91.68 -6 91 C-4.02 91 -2.04 91 0 91 C0 60.97 0 30.94 0 0 Z " fill="#C72477" transform="translate(89,52)"/>
<path d="M0 0 C0.66 0 1.32 0 2 0 C2 33.33 2 66.66 2 101 C-6 105 -6 105 -9 105 C-9 104.34 -9 103.68 -9 103 C-8.01 103 -7.02 103 -6 103 C-6 102.34 -6 101.68 -6 101 C-3.03 100.505 -3.03 100.505 0 100 C0 67 0 34 0 0 Z " fill="#C52A78" transform="translate(537,40)"/>
<path d="M0 0 C2.02408755 0.09002398 4.04544287 0.24641038 6.0625 0.4375 C7.71958984 0.59025391 7.71958984 0.59025391 9.41015625 0.74609375 C10.26480469 0.82988281 11.11945312 0.91367188 12 1 C13.06640625 3.34375 13.06640625 3.34375 14 6 C13.649375 6.825 13.29875 7.65 12.9375 8.5 C12.628125 9.325 12.31875 10.15 12 11 C13.30027975 13.69519712 13.30027975 13.69519712 15 16 C15 16.66 15 17.32 15 18 C12.8125 18.375 12.8125 18.375 10 18 C8.00977164 16.16038352 6.61010101 14.20813852 5 12 C4.67 13.98 4.34 15.96 4 18 C2.35 17.67 0.7 17.34 -1 17 C-1.02684679 14.35409986 -1.04676357 11.70846904 -1.0625 9.0625 C-1.07087891 8.30775391 -1.07925781 7.55300781 -1.08789062 6.77539062 C-1.09652441 4.85005687 -1.05224333 2.92464419 -1 1 C-0.67 0.67 -0.34 0.34 0 0 Z M4 4 C4 4.99 4 5.98 4 7 C5.65 7 7.3 7 9 7 C9 6.34 9 5.68 9 5 C7.35 4.67 5.7 4.34 4 4 Z " fill="#CD1C72" transform="translate(795,9)"/>
<path d="M0 0 C0.66 0.33 1.32 0.66 2 1 C1.360625 1.78375 0.72125 2.5675 0.0625 3.375 C-3.31573976 7.67457788 -3.16750484 10.91526741 -3.20532227 16.21337891 C-3.21522186 17.0622316 -3.22512146 17.91108429 -3.23532104 18.78565979 C-3.26697917 21.59926538 -3.29171049 24.41288788 -3.31640625 27.2265625 C-3.33697206 29.17427008 -3.35796843 31.12197316 -3.37937927 33.06967163 C-3.43463852 38.2021521 -3.48403079 43.33467311 -3.53222656 48.46722412 C-3.58241348 53.70214455 -3.63811419 58.93700594 -3.69335938 64.171875 C-3.80098806 74.44786626 -3.90242256 84.72390873 -4 95 C-5.4317616 95.69937202 -6.87067032 96.38412718 -8.3125 97.0625 C-9.11300781 97.44535156 -9.91351563 97.82820313 -10.73828125 98.22265625 C-13 99 -13 99 -16 98 C-15.34 96.68 -14.68 95.36 -14 94 C-14 94.66 -14 95.32 -14 96 C-10.535 95.01 -10.535 95.01 -7 94 C-6.98969254 93.10179031 -6.97938507 92.20358063 -6.96876526 91.27815247 C-6.87027825 82.76149788 -6.76769724 74.24490414 -6.66066074 65.72835255 C-6.60578942 61.35123245 -6.55243209 56.97410541 -6.50268555 52.59692383 C-6.45450726 48.36285549 -6.40215517 44.12885644 -6.34705925 39.89487267 C-6.32687478 38.28959597 -6.30812659 36.68430047 -6.29092598 35.07898903 C-5.97575838 5.97575838 -5.97575838 5.97575838 0 0 Z " fill="#C42373" transform="translate(321,46)"/>
<path d="M0 0 C0.99 0.495 0.99 0.495 2 1 C2 20.14 2 39.28 2 59 C3.32 59 4.64 59 6 59 C6 58.34 6 57.68 6 57 C7.175625 56.87625 8.35125 56.7525 9.5625 56.625 C12.36005678 56.2808366 14.76509222 55.78140222 17.5 55 C21.37386668 53.89318095 24.9992445 53.42113216 29 53 C26.16253617 54.89164255 24.26924501 55.62301742 21.03515625 56.5078125 C19.58786133 56.90419922 19.58786133 56.90419922 18.11132812 57.30859375 C17.10521484 57.57800781 16.09910156 57.84742188 15.0625 58.125 C14.06025391 58.40214844 13.05800781 58.67929688 12.02539062 58.96484375 C7.82863023 60.10152468 4.37912679 61 0 61 C0 40.87 0 20.74 0 0 Z " fill="#C32675" transform="translate(5,92)"/>
<path d="M0 0 C4.30696572 4.86874385 4.12588342 10.30298918 4.11352539 16.55615234 C4.11341209 18.47746475 4.11341209 18.47746475 4.11329651 20.43759155 C4.10819105 21.82037394 4.10297508 23.20315592 4.09765625 24.5859375 C4.09578917 26.01225739 4.09436664 27.43857792 4.09336853 28.86489868 C4.08956615 32.60326942 4.07975552 36.34160078 4.06866455 40.07995605 C4.05840124 43.90095487 4.0538604 47.7219601 4.04882812 51.54296875 C4.03813103 59.02866371 4.02108223 66.51432632 4 74 C3.34 73.67 2.68 73.34 2 73 C1.99191315 72.23436234 1.98382629 71.46872467 1.97549438 70.67988586 C1.89747292 63.45566766 1.81015968 56.23164923 1.71247292 49.00767231 C1.66258017 45.29397105 1.61624976 41.58029727 1.578125 37.86645508 C1.54118313 34.28071544 1.49479951 30.69520966 1.44193649 27.10967064 C1.42343971 25.74342143 1.4083144 24.37712218 1.39665604 23.0107975 C1.37971343 21.09344217 1.34954601 19.17621763 1.31884766 17.2590332 C1.30552399 16.16871292 1.29220032 15.07839264 1.2784729 13.95503235 C0.99494289 10.94633614 0.26766131 8.72761321 -1 6 C-0.67 5.67 -0.34 5.34 0 5 C0.04063832 3.33382885 0.042721 1.66611905 0 0 Z " fill="#C52476" transform="translate(651,44)"/>
<path d="M0 0 C0.33 0 0.66 0 1 0 C1 32.34 1 64.68 1 98 C3.475 97.505 3.475 97.505 6 97 C6.33 95.68 6.66 94.36 7 93 C7.66 93 8.32 93 9 93 C9 93.66 9 94.32 9 95 C10.65 95 12.3 95 14 95 C11.894132 97.105868 10.2634771 97.92752247 7.5625 99.125 C6.78003906 99.47820312 5.99757813 99.83140625 5.19140625 100.1953125 C3 101 3 101 0 101 C0 67.67 0 34.34 0 0 Z " fill="#CF3182" transform="translate(510,52)"/>
<path d="M0 0 C2 1 2 1 3.11378479 4.06851196 C4.13680506 8.00775381 4.24838997 11.85284537 4.17944336 15.90380859 C4.17491653 16.66090622 4.17038971 17.41800385 4.16572571 18.19804382 C4.15482672 19.83056504 4.1393647 21.46306102 4.11976433 23.09550095 C4.08940184 25.68614281 4.07273535 28.27655642 4.05970764 30.86734009 C4.02012221 38.22944328 3.95503178 45.59126982 3.88354492 52.953125 C3.84064979 57.46749333 3.81266569 61.9817689 3.79324532 66.49629593 C3.78273337 68.20821338 3.76639937 69.92010602 3.74394035 71.63190842 C3.55163504 84.09944288 3.55163504 84.09944288 7 96 C3.17151103 92.69357771 2.11185321 89.45704999 1.72825623 84.46014404 C1.70790931 83.08128757 1.69817127 81.7022483 1.69702148 80.32324219 C1.68858215 79.56643661 1.68014282 78.80963104 1.67144775 78.02989197 C1.64572471 75.53554628 1.6335369 73.04131915 1.62109375 70.546875 C1.60490526 68.80437297 1.58772386 67.0618799 1.56959534 65.31939697 C1.52394375 60.73293232 1.48913573 56.14645522 1.45739746 51.55987549 C1.40551875 44.23367906 1.33992491 36.9076168 1.26918221 29.58158112 C1.24652724 27.03313848 1.23013675 24.48471213 1.21446228 21.93621826 C1.15733088 14.56925666 1.04894696 7.30722348 0 0 Z " fill="#CA307F" transform="translate(624,50)"/>
<path d="M0 0 C2 0 2 0 4.125 1.875 C6 4 6 4 6 6 C5.34 6 4.68 6 4 6 C4 30.42 4 54.84 4 80 C3.67 80 3.34 80 3 80 C2.99191315 79.08624603 2.98382629 78.17249207 2.97549438 77.23104858 C2.89747197 68.60913684 2.81015813 59.98737962 2.71247292 51.36566734 C2.66258098 46.9334258 2.61625041 42.50120727 2.578125 38.06884766 C2.54118235 33.78935443 2.49479821 29.51005712 2.44193649 25.23073196 C2.42344019 23.60014923 2.40831473 21.96952458 2.39665604 20.33887863 C2.3797117 18.05042315 2.35065782 15.76241169 2.31884766 13.47412109 C2.30552399 12.17284271 2.29220032 10.87156433 2.2784729 9.53085327 C2.00296512 6.03759581 1.25988619 3.25601041 0 0 Z " fill="#C42476" transform="translate(671,38)"/>
<path d="M0 0 C-0.66002224 12.76042996 -5.68912865 23.67629118 -13 34 C-14.08073852 30.75778445 -14.21676408 28.39597063 -14 25 C-13.34 24.34 -12.68 23.68 -12 23 C-10.68 23.33 -9.36 23.66 -8 24 C-7.34 21.03 -6.68 18.06 -6 15 C-5.34 15 -4.68 15 -4 15 C-3.94583812 13.39620659 -3.90713362 11.79188594 -3.875 10.1875 C-3.85179687 9.29417969 -3.82859375 8.40085937 -3.8046875 7.48046875 C-3.81714173 4.74597286 -3.81714173 4.74597286 -6 2 C-1.125 0 -1.125 0 0 0 Z " fill="#CC1D74" transform="translate(271,100)"/>
<path d="M0 0 C4.29971636 3.67977476 5.01401198 8.61846234 6 14 C6.31799532 18.24191277 6.28901151 22.43703094 6.1875 26.6875 C6.17396484 27.78255859 6.16042969 28.87761719 6.14648438 30.00585938 C6.11156837 32.67111414 6.06253717 35.33527504 6 38 C5.34 38 4.68 38 4 38 C3.67 40.97 3.34 43.94 3 47 C0 47 0 47 -2 46 C-1.38125 45.195625 -0.7625 44.39125 -0.125 43.5625 C5.06698722 35.68246266 4.95781537 25.38479126 3.359375 16.3984375 C2.84743995 14.01442624 2.31404496 11.63486682 1.75390625 9.26171875 C1.04270415 6.18475629 0.48609721 3.11951707 0 0 Z " fill="#CC2176" transform="translate(241,84)"/>
<path d="M0 0 C2.97 0 5.94 0 9 0 C9 0.66 9 1.32 9 2 C7.02 2.33 5.04 2.66 3 3 C3.11344376 5.1464753 3.24106345 7.29220592 3.375 9.4375 C3.44460938 10.63246094 3.51421875 11.82742187 3.5859375 13.05859375 C3.72257812 14.02925781 3.85921875 14.99992187 4 16 C4.66 16.33 5.32 16.66 6 17 C5.93489583 19.01822917 5.86979167 21.03645833 5.8046875 23.0546875 C5.81668311 25.23863645 5.81668311 25.23863645 8 27 C6 30 6 30 3 32 C0.89908257 10.03975535 0.89908257 10.03975535 0 0 Z " fill="#D11F7A" transform="translate(462,89)"/>
<path d="M0 0 C1.32 0.66 2.64 1.32 4 2 C-2.12193205 8.85169879 -9.27437776 13.95318437 -18 17 C-18.99 17 -19.98 17 -21 17 C-21 16.34 -21 15.68 -21 15 C-20.01 15 -19.02 15 -18 15 C-18 14.01 -18 13.02 -18 12 C-15.23735711 11.40267181 -12.83967231 11 -10 11 C-10 10.34 -10 9.68 -10 9 C-8.3125 6.875 -8.3125 6.875 -6 5 C-3.25 4.75 -3.25 4.75 -1 5 C-0.67 3.35 -0.34 1.7 0 0 Z " fill="#CF1772" transform="translate(252,134)"/>
<path d="M0 0 C-0.309375 0.556875 -0.61875 1.11375 -0.9375 1.6875 C-2.33829914 4.73629812 -3 7.64341652 -3 11 C-3.66 11 -4.32 11 -5 11 C-4.67 11.99 -4.34 12.98 -4 14 C-4.99 15.485 -4.99 15.485 -6 17 C-6.45375 16.071875 -6.9075 15.14375 -7.375 14.1875 C-8.9421633 10.96078611 -8.9421633 10.96078611 -11 8 C-11 6.68 -11 5.36 -11 4 C-9.73308493 3.32591692 -8.46129251 2.66099503 -7.1875 2 C-6.47980469 1.62875 -5.77210937 1.2575 -5.04296875 0.875 C-3 0 -3 0 0 0 Z " fill="#D81277" transform="translate(11,30)"/>
<path d="M0 0 C2.475 0.495 2.475 0.495 5 1 C4.67 2.32 4.34 3.64 4 5 C5.98 5 7.96 5 10 5 C10 6.98 10 8.96 10 11 C7.03 10.505 7.03 10.505 4 10 C3.34 11.32 2.68 12.64 2 14 C1.34 14 0.68 14 0 14 C0 9.38 0 4.76 0 0 Z " fill="#DF0F7B" transform="translate(795,11)"/>
<path d="M0 0 C4.41939874 5.38013759 4.46390844 10.64990037 4.41015625 17.46875 C3.57168307 24.68760481 0.2115338 31.51474754 -5.375 36.25 C-6.24125 36.8275 -7.1075 37.405 -8 38 C-8 37.01 -8 36.02 -8 35 C-7.34 35 -6.68 35 -6 35 C-6 34.01 -6 33.02 -6 32 C-5.34 32 -4.68 32 -4 32 C-4.33 31.01 -4.66 30.02 -5 29 C-3.68 29 -2.36 29 -1 29 C-1 27.68 -1 26.36 -1 25 C-0.34 25 0.32 25 1 25 C1.89704296 17.72667868 2.0948643 12.02395677 0 5 C-0.125 2 -0.125 2 0 0 Z " fill="#CA2075" transform="translate(792,102)"/>
<path d="M0 0 C1.86551426 3.58752742 3.42535928 7.27812193 5 11 C-0.42512119 13.25646633 -5.89048256 15.37340864 -11.4375 17.3125 C-12.42621094 17.65925781 -13.41492188 18.00601563 -14.43359375 18.36328125 C-17 19 -17 19 -20 18 C-18.68 17.67 -17.36 17.34 -16 17 C-16 16.34 -16 15.68 -16 15 C-14.02 14.01 -12.04 13.02 -10 12 C-10 12.66 -10 13.32 -10 14 C-9.01 14 -8.02 14 -7 14 C-7 13.34 -7 12.68 -7 12 C-2.545 11.505 -2.545 11.505 2 11 C1.67 10.29875 1.34 9.5975 1 8.875 C-0.09044562 5.73996884 -0.15322643 3.29436818 0 0 Z " fill="#D21A72" transform="translate(655,134)"/>
<path d="M0 0 C0.33 0 0.66 0 1 0 C1.21192221 5.19209404 0.5912689 9.126739 -1 14 C-0.34 14.33 0.32 14.66 1 15 C2.36172187 18.78256075 2.53705732 23.03191992 3 27 C3.66 27 4.32 27 5 27 C5.33 28.65 5.66 30.3 6 32 C0.8347565 27.75712141 -1.67513762 22.31201155 -2.3203125 15.734375 C-2.41192107 10.00229606 -2.02556266 5.40420117 0 0 Z M2 17 C2.99 17.495 2.99 17.495 4 18 C3.01 18.495 3.01 18.495 2 19 C2 18.34 2 17.68 2 17 Z " fill="#D01F73" transform="translate(724,50)"/>
<path d="M0 0 C0.66 0 1.32 0 2 0 C2.433125 0.515625 2.86625 1.03125 3.3125 1.5625 C4.1478125 2.2740625 4.1478125 2.2740625 5 3 C7.65466049 2.76956136 7.65466049 2.76956136 10 2 C9.67 2.66 9.34 3.32 9 4 C12.96 4.33 16.92 4.66 21 5 C17.98509443 7.00993705 15.7850073 7.72623341 12.3125 8.625 C11.31863281 8.88539063 10.32476562 9.14578125 9.30078125 9.4140625 C8.54152344 9.60742188 7.78226562 9.80078125 7 10 C6.01524786 8.90081184 5.03739527 7.7954398 4.0625 6.6875 C3.51722656 6.07261719 2.97195312 5.45773438 2.41015625 4.82421875 C1 3 1 3 0 0 Z " fill="#D21574" transform="translate(119,144)"/>
<path d="M0 0 C0.66 0 1.32 0 2 0 C2 1.32 2 2.64 2 4 C3.32 4.33 4.64 4.66 6 5 C6.33 4.01 6.66 3.02 7 2 C9.0625 4.1875 9.0625 4.1875 11 7 C10.80654378 9.77287249 10.23457223 11.53085554 9 14 C7.69901283 12.78070272 6.40957563 11.54907548 5.125 10.3125 C4.40570312 9.62800781 3.68640625 8.94351563 2.9453125 8.23828125 C0.91664113 5.90408709 -0.02992733 3.91532366 -1 1 C-0.67 0.67 -0.34 0.34 0 0 Z " fill="#D41874" transform="translate(717,125)"/>
<path d="M0 0 C3.12764961 -0.27596908 4.68631193 -0.19147194 7.40625 1.46875 C12.65841737 3.70663001 17.72039031 3.57094444 23.375 3.6875 C24.49261719 3.72166016 25.61023438 3.75582031 26.76171875 3.79101562 C29.50771222 3.87316073 32.25339982 3.94242128 35 4 C35 4.33 35 4.66 35 5 C23.96793474 7.6145357 12.26348545 6.8653893 2 2 C1.34 1.34 0.68 0.68 0 0 Z " fill="#C82373" transform="translate(196,147)"/>
<path d="M0 0 C2.08432499 3.12648749 3.28558611 6.05730868 4.625 9.5625 C5.07101563 10.71878906 5.51703125 11.87507813 5.9765625 13.06640625 C7 16 7 16 7 18 C6.01 18 5.02 18 4 18 C3.34 16.02 2.68 14.04 2 12 C0.35 11.67 -1.3 11.34 -3 11 C-3.125 5.25 -3.125 5.25 -2 3 C-1.34 3 -0.68 3 0 3 C0 2.01 0 1.02 0 0 Z " fill="#D21777" transform="translate(189,84)"/>
<path d="M0 0 C1.010625 0.66 2.02125 1.32 3.0625 2 C2.7325 3.32 2.4025 4.64 2.0625 6 C1.7325 5.01 1.4025 4.02 1.0625 3 C-5.17263052 -0.74107831 -11.86614243 -0.65233926 -18.9375 0 C-21.54128685 1.0307674 -22.80911295 2.09565369 -24.9375 4 C-25.9275 4.66 -26.9175 5.32 -27.9375 6 C-28.2675 4.68 -28.5975 3.36 -28.9375 2 C-20.4290561 -3.16501743 -9.09514013 -4.53138654 0 0 Z " fill="#C42974" transform="translate(620.9375,44)"/>
<path d="M0 0 C2 2 2 2 2 5 C2.99 5 3.98 5 5 5 C5 5.66 5 6.32 5 7 C5.66 7 6.32 7 7 7 C8.125 9.3125 8.125 9.3125 9 12 C8.01 13.485 8.01 13.485 7 15 C8.32 15.66 9.64 16.32 11 17 C11 18.65 11 20.3 11 22 C7.11989708 18.64353929 5.30967865 15.02094798 3.25 10.4375 C2.93417969 9.76525391 2.61835938 9.09300781 2.29296875 8.40039062 C0.93288467 5.43587836 0 3.29819115 0 0 Z " fill="#D21D79" transform="translate(165,108)"/>
<path d="M0 0 C1.32 0 2.64 0 4 0 C4 0.66 4 1.32 4 2 C4.99 2 5.98 2 7 2 C7 2.99 7 3.98 7 5 C8.65 5.33 10.3 5.66 12 6 C12 6.66 12 7.32 12 8 C12.66 8.33 13.32 8.66 14 9 C13.67 9.66 13.34 10.32 13 11 C14.98 11.66 16.96 12.32 19 13 C19 13.66 19 14.32 19 15 C13.6002394 13.63994036 10.5847967 11.2565475 6.6875 7.5 C5.8821582 6.75169922 5.8821582 6.75169922 5.06054688 5.98828125 C1.15897507 2.31795015 1.15897507 2.31795015 0 0 Z " fill="#CD1D74" transform="translate(177,132)"/>
<path d="M0 0 C0.33 0 0.66 0 1 0 C1.31461385 7.09629025 1.44572039 12.68284595 -2 19 C-0.906875 18.484375 0.18625 17.96875 1.3125 17.4375 C5 16 5 16 8 17 C6.58957044 17.84384675 5.17135868 18.67469496 3.75 19.5 C2.96109375 19.9640625 2.1721875 20.428125 1.359375 20.90625 C-1 22 -1 22 -5 22 C-4.80664062 21.41734375 -4.61328125 20.8346875 -4.4140625 20.234375 C-2.29452257 13.56097206 -1.01107936 6.92291987 0 0 Z " fill="#C72577" transform="translate(464,159)"/>
<path d="M0 0 C6.15234375 -0.09765625 6.15234375 -0.09765625 8 0 C8.33 0.33 8.66 0.66 9 1 C11.2898821 1.09956009 13.58295937 1.1296872 15.875 1.125 C17.13054688 1.12757813 18.38609375 1.13015625 19.6796875 1.1328125 C23.00121782 1.15407077 23.00121782 1.15407077 26 0 C28.1875 0.4375 28.1875 0.4375 30 1 C21.54616226 4.97827658 12.60548972 5.45390827 3.6875 2.5 C2.470625 2.005 1.25375 1.51 0 1 C0 0.67 0 0.34 0 0 Z " fill="#CC2270" transform="translate(741,149)"/>
<path d="M0 0 C2.17581687 2.84881728 4.20937999 5.76084088 6.1875 8.75 C6.71730469 9.54921875 7.24710938 10.3484375 7.79296875 11.171875 C8.19128906 11.77515625 8.58960938 12.3784375 9 13 C8.67 13.66 8.34 14.32 8 15 C7.38125 14.835 6.7625 14.67 6.125 14.5 C4.03936614 13.92365356 4.03936614 13.92365356 2 14 C2 13.34 2 12.68 2 12 C1.34 12 0.68 12 0 12 C0 11.34 0 10.68 0 10 C-0.66 9.67 -1.32 9.34 -2 9 C-1.34 9 -0.68 9 0 9 C0 6.03 0 3.06 0 0 Z " fill="#D41676" transform="translate(196,102)"/>
<path d="M0 0 C0.33 0 0.66 0 1 0 C1 1.65 1 3.3 1 5 C1.66 5 2.32 5 3 5 C4.32 7.64 5.64 10.28 7 13 C7.7425 12.938125 8.485 12.87625 9.25 12.8125 C12.45383006 13.03094296 13.64031256 13.90250005 16 16 C13.36 16.66 10.72 17.32 8 18 C-1.12248744 6.10238693 -1.12248744 6.10238693 -0.6875 2.1875 C-0.460625 1.465625 -0.23375 0.74375 0 0 Z " fill="#CB2574" transform="translate(354,135)"/>
<path d="M0 0 C2.89077556 1.29586491 4.97775742 2.54290584 7 5 C7.36076355 6.9172821 7.36076355 6.9172821 7.34057617 9.10424805 C7.34034958 9.92487228 7.34012299 10.74549652 7.33988953 11.59098816 C7.32440567 12.47232925 7.30892181 13.35367035 7.29296875 14.26171875 C7.28872391 15.16751175 7.28447906 16.07330475 7.28010559 17.00654602 C7.26330848 19.90049933 7.2256545 22.79375706 7.1875 25.6875 C7.17245449 27.64907849 7.15876585 29.61066789 7.14648438 31.57226562 C7.11340157 36.38177856 7.06161222 41.19077133 7 46 C6.67 46 6.34 46 6 46 C5.9906543 44.88028809 5.98130859 43.76057617 5.97167969 42.60693359 C5.93167839 38.43563684 5.86589195 34.26506978 5.79248047 30.09423828 C5.76432947 28.29225061 5.74308578 26.49014081 5.72900391 24.68798828 C5.70749245 22.09083802 5.66080243 19.49514705 5.609375 16.8984375 C5.60814636 16.0982016 5.60691772 15.2979657 5.60565186 14.47348022 C5.46835918 9.17957862 4.37049277 6.27693258 1 2 C0.67 1.34 0.34 0.68 0 0 Z " fill="#C52878" transform="translate(346,45)"/>
<path d="M0 0 C0.33 0 0.66 0 1 0 C1.03738281 1.05058594 1.07476562 2.10117188 1.11328125 3.18359375 C1.45493759 10.96113653 2.00662248 17.71177647 5 25 C2 27 2 27 -1 27 C-1 26.34 -1 25.68 -1 25 C-0.01 25 0.98 25 2 25 C0.73025028 20.58477891 0.73025028 20.58477891 -2 17 C-2.125 13.375 -2.125 13.375 -2 10 C-1.34 10 -0.68 10 0 10 C0 6.7 0 3.4 0 0 Z " fill="#CF1C76" transform="translate(381,120)"/>
<path d="M0 0 C1.8125 1.5625 1.8125 1.5625 3 3 C2.67 3.66 2.34 4.32 2 5 C-1.0625 5.625 -1.0625 5.625 -4 6 C-4 5.01 -4 4.02 -4 3 C-7.63 3.33 -11.26 3.66 -15 4 C-5.68421053 -2.21052632 -5.68421053 -2.21052632 0 0 Z " fill="#D21974" transform="translate(696,25)"/>
<path d="M0 0 C1.32 0 2.64 0 4 0 C4 0.66 4 1.32 4 2 C5.98 1.34 7.96 0.68 10 0 C10 0.99 10 1.98 10 3 C10.31088368 4.67099977 10.64080332 6.33871537 11 8 C12.32 7.34 13.64 6.68 15 6 C14.67 7.65 14.34 9.3 14 11 C10.50004453 9.43810398 7.72827143 7.33666309 4.75 4.9375 C3.85796875 4.22464844 2.9659375 3.51179688 2.046875 2.77734375 C1.37140625 2.19082031 0.6959375 1.60429688 0 1 C0 0.67 0 0.34 0 0 Z " fill="#D81478" transform="translate(741,91)"/>
<path d="M0 0 C0.33 0 0.66 0 1 0 C1 9.57 1 19.14 1 29 C-0.98 29.66 -2.96 30.32 -5 31 C-5.33 30.01 -5.66 29.02 -6 28 C-4.68 28.33 -3.36 28.66 -2 29 C-2.33 27.35 -2.66 25.7 -3 24 C-2.01 24 -1.02 24 0 24 C-0.17402344 23.20335937 -0.34804688 22.40671875 -0.52734375 21.5859375 C-1.1082529 17.17870942 -0.86921569 13.04593644 -0.5625 8.625 C-0.51029297 7.79355469 -0.45808594 6.96210937 -0.40429688 6.10546875 C-0.27561269 4.06991892 -0.13864593 2.03489559 0 0 Z " fill="#DA147B" transform="translate(702,112)"/>
<path d="M0 0 C0.66 0.33 1.32 0.66 2 1 C0.99088542 2.72526042 -0.01822917 4.45052083 -1.02734375 6.17578125 C-2.88435324 9.65860628 -3.11905985 12.45016733 -3.09765625 16.32421875 C-3.09443359 17.35224609 -3.09121094 18.38027344 -3.08789062 19.43945312 C-3.07951172 20.51130859 -3.07113281 21.58316406 -3.0625 22.6875 C-3.05798828 23.77095703 -3.05347656 24.85441406 -3.04882812 25.97070312 C-3.03703743 28.64719085 -3.02058063 31.32356777 -3 34 C-3.66 34 -4.32 34 -5 34 C-5.04947698 30.06734104 -5.08575578 26.13480286 -5.10986328 22.2019043 C-5.12485495 20.20680382 -5.15026731 18.21179054 -5.17578125 16.21679688 C-5.18222656 14.96318359 -5.18867188 13.70957031 -5.1953125 12.41796875 C-5.20578613 11.26063232 -5.21625977 10.1032959 -5.22705078 8.91088867 C-5 6 -5 6 -3 3 C-2.34 3 -1.68 3 -1 3 C-0.67 2.01 -0.34 1.02 0 0 Z " fill="#C82275" transform="translate(192,48)"/>
<path d="M0 0 C1.30710937 -0.01417969 2.61421875 -0.02835938 3.9609375 -0.04296875 C7.36298963 0.1710196 9.59183747 0.70605189 12.625 2.1875 C12.625 2.5175 12.625 2.8475 12.625 3.1875 C9.985 3.8475 7.345 4.5075 4.625 5.1875 C4.625 3.8675 4.625 2.5475 4.625 1.1875 C3.41263672 1.4040625 3.41263672 1.4040625 2.17578125 1.625 C1.10714844 1.810625 0.03851563 1.99625 -1.0625 2.1875 C-2.11824219 2.373125 -3.17398438 2.55875 -4.26171875 2.75 C-7.02404062 3.13818074 -9.59242043 3.27009976 -12.375 3.1875 C-8.72581418 -0.46168582 -4.92576997 0.02419337 0 0 Z " fill="#CB2272" transform="translate(116.375,23.8125)"/>
<path d="M0 0 C0.33 0 0.66 0 1 0 C1.33 7.26 1.66 14.52 2 22 C2.99 21.67 3.98 21.34 5 21 C5 22.32 5 23.64 5 25 C4.34 25 3.68 25 3 25 C3 27.31 3 29.62 3 32 C0.36963637 27.26534546 -0.12761416 22.8429347 -0.09765625 17.48046875 C-0.09443359 16.45888672 -0.09121094 15.43730469 -0.08789062 14.38476562 C-0.07951172 13.32966797 -0.07113281 12.27457031 -0.0625 11.1875 C-0.05798828 10.11306641 -0.05347656 9.03863281 -0.04882812 7.93164062 C-0.03707729 5.28770317 -0.02064787 2.64388048 0 0 Z " fill="#CF227B" transform="translate(162,76)"/>
<path d="M0 0 C0.99 0 1.98 0 3 0 C2.83628906 0.86753906 2.67257812 1.73507813 2.50390625 2.62890625 C1.6379255 8.69077148 1.89586197 14.82952184 1.9375 20.9375 C1.94201172 22.19369141 1.94652344 23.44988281 1.95117188 24.74414062 C1.96290319 27.82947663 1.979319 30.91471316 2 34 C0 32 0 32 -0.22705078 28.83544922 C-0.22673389 27.49182037 -0.21542181 26.1481659 -0.1953125 24.8046875 C-0.1924826 24.09724396 -0.18965271 23.38980042 -0.18673706 22.66091919 C-0.17553137 20.3987749 -0.15042679 18.13702485 -0.125 15.875 C-0.11497067 14.34245363 -0.10584474 12.80990106 -0.09765625 11.27734375 C-0.07559086 7.51807699 -0.04105896 3.75910536 0 0 Z " fill="#C92577" transform="translate(421,51)"/>
<path d="M0 0 C0.33 0 0.66 0 1 0 C1 2.64 1 5.28 1 8 C2.98 7.67 4.96 7.34 7 7 C7 7.66 7 8.32 7 9 C7.66 9.66 8.32 10.32 9 11 C4.545 12.485 4.545 12.485 0 14 C0 9.38 0 4.76 0 0 Z " fill="#DA1B7A" transform="translate(287,139)"/>
<path d="M0 0 C7.77231176 2.70868602 7.77231176 2.70868602 9.00390625 5.171875 C7.35390625 5.171875 5.70390625 5.171875 4.00390625 5.171875 C4.00390625 4.511875 4.00390625 3.851875 4.00390625 3.171875 C2.35390625 3.171875 0.70390625 3.171875 -0.99609375 3.171875 C-0.99609375 2.511875 -0.99609375 1.851875 -0.99609375 1.171875 C-5.94609375 1.171875 -10.89609375 1.171875 -15.99609375 1.171875 C-10.37965534 -1.6363442 -6.04756261 -1.67155577 0 0 Z " fill="#CA2175" transform="translate(69.99609375,25.828125)"/>
<path d="M0 0 C1.96671909 1.8586576 3.39236415 3.79524227 5 6 C4.071875 5.79375 3.14375 5.5875 2.1875 5.375 C-1.15173402 4.63307034 -1.15173402 4.63307034 -4 7 C-4.33 6.01 -4.66 5.02 -5 4 C-7.64 4 -10.28 4 -13 4 C-9.65265266 0.65265266 -4.67147137 -0.95825054 0 0 Z " fill="#C82073" transform="translate(26,25)"/>
<path d="M0 0 C1.1875 2.0625 1.1875 2.0625 2 4 C2.66 4.33 3.32 4.66 4 5 C3.67 5.99 3.34 6.98 3 8 C2.236875 7.195625 1.47375 6.39125 0.6875 5.5625 C-3.59878391 1.90624818 -8.58536645 2.10598037 -14 2 C-9.21638601 -1.75205241 -5.60821777 -3.18304252 0 0 Z " fill="#D11D74" transform="translate(57,44)"/>
<path d="M0 0 C0.78688445 2.77723925 1.11949924 5.22610077 1.09765625 8.109375 C1.09443359 8.86347656 1.09121094 9.61757812 1.08789062 10.39453125 C1.07951172 11.17183594 1.07113281 11.94914062 1.0625 12.75 C1.05798828 13.54277344 1.05347656 14.33554688 1.04882812 15.15234375 C1.03708565 17.10159508 1.01915146 19.05080738 1 21 C0.01 21 -0.98 21 -2 21 C-2.3690205 6.21867882 -2.3690205 6.21867882 0 0 Z " fill="#E10D7C" transform="translate(165,64)"/>
<path d="M0 0 C-1.71866072 2.08048403 -2.61613046 2.92737603 -5.3125 3.4375 C-8.21679596 3.86504747 -8.21679596 3.86504747 -11 6.0625 C-14.1114613 8.07198542 -15.40260322 8.42322315 -19 8 C-19 7.34 -19 6.68 -19 6 C-16.40074504 4.80057395 -13.79654493 3.61527179 -11.1875 2.4375 C-10.08051758 1.92413086 -10.08051758 1.92413086 -8.95117188 1.40039062 C-8.23896484 1.08134766 -7.52675781 0.76230469 -6.79296875 0.43359375 C-6.1383667 0.13509521 -5.48376465 -0.16340332 -4.80932617 -0.47094727 C-3 -1 -3 -1 0 0 Z " fill="#CF1C79" transform="translate(301,27)"/>
<path d="M0 0 C2 1 2 1 3.1484375 3.81640625 C4.53771035 9.13560846 3.96216106 14.50583524 3.625 19.9375 C3.56828125 21.00291016 3.5115625 22.06832031 3.453125 23.16601562 C3.31256374 25.77811235 3.16124852 28.38911245 3 31 C2.67 31 2.34 31 2 31 C1.97494385 30.38068604 1.9498877 29.76137207 1.92407227 29.12329102 C1.80677342 26.26955112 1.68466414 23.41603559 1.5625 20.5625 C1.52318359 19.58861328 1.48386719 18.61472656 1.44335938 17.61132812 C1.18631833 11.69938401 0.72280379 5.87354003 0 0 Z " fill="#DB2983" transform="translate(624,50)"/>
<path d="M0 0 C2.52259061 1.97420135 2.9929808 2.96745642 3.6875 6.1875 C3.790625 7.115625 3.89375 8.04375 4 9 C4.99 9 5.98 9 7 9 C7.33 12.3 7.66 15.6 8 19 C5.93643327 15.90464991 4.11819825 12.75245445 2.3125 9.5 C1.66925781 8.3553125 1.02601563 7.210625 0.36328125 6.03125 C-1 3 -1 3 0 0 Z " fill="#CB2075" transform="translate(233,65)"/>
<path d="M0 0 C0.70125 0.144375 1.4025 0.28875 2.125 0.4375 C5.46458456 1.09089698 8.60520991 1.06656451 12 1 C12 1.33 12 1.66 12 2 C4 4 4 4 1.8125 4.40625 C1.214375 4.6021875 0.61625 4.798125 0 5 C-1.29660434 7.49034386 -1.29660434 7.49034386 -2 10 C-3.1875 8.3125 -3.1875 8.3125 -4 6 C-2.87755007 3.70165014 -1.81522119 1.81522119 0 0 Z " fill="#D71B73" transform="translate(428,40)"/>
<path d="M0 0 C5.61 0 11.22 0 17 0 C17 0.66 17 1.32 17 2 C16.11957031 2.04898438 15.23914063 2.09796875 14.33203125 2.1484375 C12.58986328 2.26058594 12.58986328 2.26058594 10.8125 2.375 C9.66394531 2.44460937 8.51539063 2.51421875 7.33203125 2.5859375 C4.20040883 2.97509574 1.84714191 3.6809851 -1 5 C-0.67 3.35 -0.34 1.7 0 0 Z " fill="#CB2276" transform="translate(325,41)"/>
<path d="M0 0 C3 3.20689655 3 3.20689655 3 6 C-0.37462715 5.45276317 -2.08235 4.9451 -5 3 C-6.65549531 2.61500109 -8.3222433 2.27206865 -10 2 C-6.7441347 -1.2558653 -4.23124549 -1.37515478 0 0 Z " fill="#DA1274" transform="translate(532,25)"/>
<path d="M0 0 C0 4.29 0 8.58 0 13 C-0.66 13 -1.32 13 -2 13 C-2 13.66 -2 14.32 -2 15 C-2.66 15 -3.32 15 -4 15 C-3.88658363 12.68690295 -3.75896193 10.37449815 -3.625 8.0625 C-3.55539062 6.77472656 -3.48578125 5.48695312 -3.4140625 4.16015625 C-3.27742187 3.11730469 -3.14078125 2.07445312 -3 1 C-1 0 -1 0 0 0 Z " fill="#E2147E" transform="translate(820,11)"/>
<path d="M0 0 C0.66 0.33 1.32 0.66 2 1 C0.25 3.5 0.25 3.5 -2 6 C-3.32 6 -4.64 6 -6 6 C-6 6.99 -6 7.98 -6 9 C-6.99 9.33 -7.98 9.66 -9 10 C-9.99 9.34 -10.98 8.68 -12 8 C-8.04 5.36 -4.08 2.72 0 0 Z " fill="#D11B72" transform="translate(731,116)"/>
<path d="M0 0 C0.66 0.33 1.32 0.66 2 1 C0.515 2.485 0.515 2.485 -1 4 C-0.01 5.485 -0.01 5.485 1 7 C0.01 8.485 0.01 8.485 -1 10 C-1.66 9.01 -2.32 8.02 -3 7 C-6.58357241 6.74984127 -6.58357241 6.74984127 -10 7 C-10 5.35 -10 3.7 -10 2 C-8.515 2.99 -8.515 2.99 -7 4 C-7 4.66 -7 5.32 -7 6 C-4.69 4.02 -2.38 2.04 0 0 Z " fill="#CC1E74" transform="translate(324,32)"/>
<path d="M0 0 C8.31248491 -0.46251848 14.69967977 -0.22550835 22 4 C20 5 20 5 17.1875 4.4375 C13.69632078 3.95831854 12.10200945 4.44899528 9 6 C9.66 4.35 10.32 2.7 11 1 C7.37 1 3.74 1 0 1 C0 0.67 0 0.34 0 0 Z " fill="#CF217A" transform="translate(757,25)"/>
<path d="M0 0 C1.65 0.33 3.3 0.66 5 1 C-0.14285714 6.57142857 -0.14285714 6.57142857 -4 7 C-5.32 5.35 -6.64 3.7 -8 2 C-7.34 1.67 -6.68 1.34 -6 1 C-5.01 1.33 -4.02 1.66 -3 2 C-3 2.66 -3 3.32 -3 4 C-2.01 4 -1.02 4 0 4 C0 2.68 0 1.36 0 0 Z " fill="#CD1E72" transform="translate(781,58)"/>
<path d="M0 0 C0.90105469 0.19464844 1.80210938 0.38929687 2.73046875 0.58984375 C3.41753906 0.74582031 4.10460937 0.90179688 4.8125 1.0625 C4.8125 1.3925 4.8125 1.7225 4.8125 2.0625 C4.14863281 2.16046875 3.48476562 2.2584375 2.80078125 2.359375 C-2.56035726 3.26724663 -6.20786413 4.08286413 -10.1875 8.0625 C-9.85416667 6.72916667 -9.52083333 5.39583333 -9.1875 4.0625 C-9.06375 3.340625 -8.94 2.61875 -8.8125 1.875 C-8.60625 1.276875 -8.4 0.67875 -8.1875 0.0625 C-4.80475734 -1.06508089 -3.41971777 -0.75500262 0 0 Z " fill="#D01D78" transform="translate(101.1875,42.9375)"/>
<path d="M0 0 C3.96 0 7.92 0 12 0 C12.33 0.99 12.66 1.98 13 3 C8.71 3 4.42 3 0 3 C0 2.01 0 1.02 0 0 Z " fill="#E1177F" transform="translate(796,0)"/>
<path d="M0 0 C2.82233829 1.10439324 4.32351649 2.71937981 6.40625 4.90625 C7.11265625 5.63972656 7.8190625 6.37320313 8.546875 7.12890625 C9.07796875 7.69480469 9.6090625 8.26070312 10.15625 8.84375 C8.29296875 9.453125 8.29296875 9.453125 6.15625 9.84375 C3.38291082 7.62507865 2.28751558 6.23754675 1.15625 2.84375 C-0.82375 2.84375 -2.80375 2.84375 -4.84375 2.84375 C-2.40565476 -0.20386905 -2.40565476 -0.20386905 0 0 Z " fill="#C72576" transform="translate(737.84375,113.15625)"/>
<path d="M0 0 C0 2.97 0 5.94 0 9 C-0.66 9 -1.32 9 -2 9 C-2 6.69 -2 4.38 -2 2 C-7.61 2 -13.22 2 -19 2 C-19 1.67 -19 1.34 -19 1 C-16.39590255 0.83218705 -13.7917318 0.66570349 -11.1875 0.5 C-10.08051758 0.42845703 -10.08051758 0.42845703 -8.95117188 0.35546875 C-5.96175412 0.16609387 -2.99625426 0 0 0 Z " fill="#C42877" transform="translate(491,87)"/>
<path d="M0 0 C3.96528893 1.73916181 6.30439938 4.21744661 9.21875 7.34375 C10.92634122 9.09968247 10.92634122 9.09968247 13.171875 10.0234375 C14.07679688 10.50683594 14.07679688 10.50683594 15 11 C15.75 14.125 15.75 14.125 16 17 C15.29488281 16.29359375 14.58976563 15.5871875 13.86328125 14.859375 C11.95076988 12.94618902 10.03091117 11.04079234 8.10546875 9.140625 C7.13280027 8.17709568 6.16014408 7.21355395 5.1875 6.25 C4.68541016 5.75628906 4.18332031 5.26257812 3.66601562 4.75390625 C2.4250615 3.52139399 1.20996878 2.26294465 0 1 C0 0.67 0 0.34 0 0 Z " fill="#C62777" transform="translate(216,49)"/>
<path d="M0 0 C3.88536171 0.5638932 6.45224086 1.66689444 9.6875 3.875 C10.45449219 4.38804688 11.22148437 4.90109375 12.01171875 5.4296875 C14 7 14 7 16 10 C14.68428397 9.7452486 13.37239624 9.47065859 12.0625 9.1875 C11.33160156 9.03667969 10.60070312 8.88585938 9.84765625 8.73046875 C9.23792969 8.48941406 8.62820312 8.24835937 8 8 C7.67 7.01 7.34 6.02 7 5 C6.67 4.34 6.34 3.68 6 3 C5.01 3 4.02 3 3 3 C3 2.34 3 1.68 3 1 C2.01 0.67 1.02 0.34 0 0 Z " fill="#CC1D72" transform="translate(234,30)"/>
<path d="M0 0 C0.66 0.33 1.32 0.66 2 1 C-0.85211349 4.01056424 -3.2436708 6.25599001 -7 8 C-7.33 8.66 -7.66 9.32 -8 10 C-9.65 9.67 -11.3 9.34 -13 9 C-13 8.01 -13 7.02 -13 6 C-11.515 6.99 -11.515 6.99 -10 8 C-9.44570313 7.50628906 -8.89140625 7.01257812 -8.3203125 6.50390625 C-7.59585938 5.86324219 -6.87140625 5.22257812 -6.125 4.5625 C-5.40570312 3.92441406 -4.68640625 3.28632812 -3.9453125 2.62890625 C-2 1 -2 1 0 0 Z " fill="#C91F6C" transform="translate(602,29)"/>
<path d="M0 0 C1.2065625 0.0309375 1.2065625 0.0309375 2.4375 0.0625 C1.47070312 0.33707031 1.47070312 0.33707031 0.484375 0.6171875 C-1.93694944 1.97061895 -1.93694944 1.97061895 -2.171875 5.3203125 C-2.21828125 6.59648437 -2.2646875 7.87265625 -2.3125 9.1875 C-2.36921875 10.46882813 -2.4259375 11.75015625 -2.484375 13.0703125 C-2.51015625 14.05773438 -2.5359375 15.04515625 -2.5625 16.0625 C-1.9025 16.0625 -1.2425 16.0625 -0.5625 16.0625 C0.0975 14.7425 0.7575 13.4225 1.4375 12.0625 C1.4375 14.0425 1.4375 16.0225 1.4375 18.0625 C-0.2125 17.7325 -1.8625 17.4025 -3.5625 17.0625 C-3.58934679 14.41659986 -3.60926357 11.77096904 -3.625 9.125 C-3.63337891 8.37025391 -3.64175781 7.61550781 -3.65039062 6.83789062 C-3.65902441 4.91255687 -3.61474333 2.98714419 -3.5625 1.0625 C-2.5625 0.0625 -2.5625 0.0625 0 0 Z " fill="#B92873" transform="translate(797.5625,8.9375)"/>
<path d="M0 0 C3.12290635 0.48578543 5.99580359 0.9986012 9 2 C9.6875 4.0625 9.6875 4.0625 10 6 C10.66 6 11.32 6 12 6 C12 6.66 12 7.32 12 8 C12.66 8.33 13.32 8.66 14 9 C14.625 11.0625 14.625 11.0625 15 13 C14.34 12.29875 13.68 11.5975 13 10.875 C10.16260701 8.02134687 7.02282685 5.68958198 3.76953125 3.33203125 C2 2 2 2 0 0 Z " fill="#CA1E72" transform="translate(443,43)"/>
<path d="M0 0 C-1.32 1.32 -2.64 2.64 -4 4 C-4.99 3.67 -5.98 3.34 -7 3 C-7 3.99 -7 4.98 -7 6 C-8.98 6.33 -10.96 6.66 -13 7 C-9.72818449 2.34395485 -5.98219124 -1.99406375 0 0 Z " fill="#D41775" transform="translate(54,28)"/>
<path d="M0 0 C2.875 0.3125 2.875 0.3125 4.875 1.3125 C4.875 3.9525 4.875 6.5925 4.875 9.3125 C4.545 9.3125 4.215 9.3125 3.875 9.3125 C3.875 7.0025 3.875 4.6925 3.875 2.3125 C2.988125 2.6425 2.10125 2.9725 1.1875 3.3125 C-1.83423347 4.22472143 -4.00873706 4.49580958 -7.125 4.3125 C-4.78015899 1.42654183 -3.77942612 0.37794261 0 0 Z " fill="#D01D78" transform="translate(460.125,146.6875)"/>
<path d="M0 0 C0.66 0 1.32 0 2 0 C2 0.66 2 1.32 2 2 C3.65 2 5.3 2 7 2 C4.31342365 4.68657635 1.53335886 5.65976043 -2 7 C-3.32 7 -4.64 7 -6 7 C-6 6.34 -6 5.68 -6 5 C-4.35 4.67 -2.7 4.34 -1 4 C-0.67 2.68 -0.34 1.36 0 0 Z " fill="#CF1A76" transform="translate(517,145)"/>
<path d="M0 0 C0.74443359 0.50660156 0.74443359 0.50660156 1.50390625 1.0234375 C5.95534637 3.94601488 9.80822254 5.81021767 15 7 C15 7.33 15 7.66 15 8 C8.07 7.505 8.07 7.505 1 7 C0.67 4.69 0.34 2.38 0 0 Z " fill="#CA1C77" transform="translate(442,127)"/>
<path d="M0 0 C8.44646925 6.15034169 8.44646925 6.15034169 12 10 C11.01 10.33 10.02 10.66 9 11 C8.566875 10.505 8.13375 10.01 7.6875 9.5 C6.00259517 7.66781808 6.00259517 7.66781808 3 8 C0 2.25 0 2.25 0 0 Z " fill="#CE1C72" transform="translate(761,71)"/>
<path d="M0 0 C0 0.99 0 1.98 0 3 C-3.3 2.67 -6.6 2.34 -10 2 C-10 2.66 -10 3.32 -10 4 C-11.65 4 -13.3 4 -15 4 C-10.36414862 0.07735653 -5.96945896 -1.75572322 0 0 Z " fill="#CF2078" transform="translate(582,25)"/>
<path d="M0 0 C1.32 0.33 2.64 0.66 4 1 C4 1.66 4 2.32 4 3 C3.34 3 2.68 3 2 3 C1.896875 3.763125 1.79375 4.52625 1.6875 5.3125 C0.95288806 8.18416484 0.3283935 9.23042094 -2 11 C-2.66 11 -3.32 11 -4 11 C-3.67 9.35 -3.34 7.7 -3 6 C-1.68 6 -0.36 6 1 6 C1 5.34 1 4.68 1 4 C0.34 4 -0.32 4 -1 4 C-0.67 2.68 -0.34 1.36 0 0 Z " fill="#D71574" transform="translate(782,134)"/>
<path d="M0 0 C4.13621084 3.3810038 7.81316569 6.66590534 11 11 C9.35 11 7.7 11 6 11 C5.7525 10.21625 5.505 9.4325 5.25 8.625 C3.84610901 5.67682892 2.99324263 5.0975223 0 4 C0 2.68 0 1.36 0 0 Z " fill="#C92172" transform="translate(205,117)"/>
<path d="M0 0 C2.96404505 2.80804268 5.44499019 5.18315774 7 9 C5.35 9.33 3.7 9.66 2 10 C0.68373308 6.38026598 0 3.90432869 0 0 Z " fill="#D21773" transform="translate(435,118)"/>
<path d="M0 0 C3 1 3 1 4.4375 3.5 C5.74552024 6.15872085 5.74552024 6.15872085 8.1875 6.8125 C8.785625 6.874375 9.38375 6.93625 10 7 C10 6.01 10 5.02 10 4 C11.65 4 13.3 4 15 4 C12.48580485 6.69378051 10.32759923 8.44805246 7 10 C5.83043409 8.52312468 4.66441854 7.04343707 3.5 5.5625 C2.8503125 4.73878906 2.200625 3.91507813 1.53125 3.06640625 C0 1 0 1 0 0 Z " fill="#C42674" transform="translate(458,56)"/>
<path d="M0 0 C0.66 1.32 1.32 2.64 2 4 C0.625 6 0.625 6 -1 8 C-1.66 8 -2.32 8 -3 8 C-3 9.32 -3 10.64 -3 12 C-3.99 12.33 -4.98 12.66 -6 13 C-3.10933941 3.40546697 -3.10933941 3.40546697 0 0 Z " fill="#CD1D71" transform="translate(404,48)"/>
<path d="M0 0 C1.86551426 3.58752742 3.42535928 7.27812193 5 11 C0.545 12.485 0.545 12.485 -4 14 C-3.34 13.01 -2.68 12.02 -2 11 C-0.68 11 0.64 11 2 11 C1.505 9.948125 1.505 9.948125 1 8.875 C-0.09044562 5.73996884 -0.15322643 3.29436818 0 0 Z " fill="#BD1F73" transform="translate(655,134)"/>
<path d="M0 0 C4.10594055 1.75968881 5.57517786 5.29575778 7.625 9.125 C6.305 9.125 4.985 9.125 3.625 9.125 C3.439375 8.34125 3.25375 7.5575 3.0625 6.75 C1.78538373 3.73123658 1.78538373 3.73123658 -2 2.8125 C-3.11375 2.585625 -4.2275 2.35875 -5.375 2.125 C-2.375 0.125 -2.375 0.125 0 0 Z " fill="#CB2170" transform="translate(306.375,23.875)"/>
<path d="M0 0 C3.86912817 3.36031132 4.31261017 7.08555774 5 12 C5.13786197 14.69497906 5.09822447 17.29882714 5 20 C4.67 20 4.34 20 4 20 C3.51908942 17.79204578 3.04034821 15.583619 2.5625 13.375 C2.16224609 11.53035156 2.16224609 11.53035156 1.75390625 9.6484375 C1.09088549 6.43982928 0.51270616 3.23552432 0 0 Z " fill="#C42975" transform="translate(241,84)"/>
<path d="M0 0 C2.85818883 2.47989913 4.19893393 5.13646878 5.75 8.5625 C6.19859375 9.53316406 6.6471875 10.50382812 7.109375 11.50390625 C7.40328125 12.32761719 7.6971875 13.15132812 8 14 C7.67 14.66 7.34 15.32 7 16 C6.01246936 14.27559635 5.03531194 12.54524974 4.0625 10.8125 C3.24458984 9.36810547 3.24458984 9.36810547 2.41015625 7.89453125 C1.09420667 5.19337158 0.42698113 2.95643899 0 0 Z " fill="#C32373" transform="translate(260,52)"/>
<path d="M0 0 C-1.38530129 3.42717768 -2.67477227 4.7293493 -6 6.3125 C-6.70125 6.65925781 -7.4025 7.00601563 -8.125 7.36328125 C-9.053125 7.67845703 -9.053125 7.67845703 -10 8 C-10.66 7.67 -11.32 7.34 -12 7 C-10.70982586 6.01886757 -9.41780894 5.04015801 -8.125 4.0625 C-7.04605469 3.24458984 -7.04605469 3.24458984 -5.9453125 2.41015625 C-2.62049861 0 -2.62049861 0 0 0 Z " fill="#CA2073" transform="translate(748,29)"/>
<path d="M0 0 C0.99 0.33 1.98 0.66 3 1 C3.25 3.75 3.25 3.75 3 7 C1 9.375 1 9.375 -1 11 C-1.0270043 9.54176788 -1.04639787 8.08339325 -1.0625 6.625 C-1.07410156 5.81289062 -1.08570313 5.00078125 -1.09765625 4.1640625 C-1 2 -1 2 0 0 Z " fill="#D71273" transform="translate(258,123)"/>
<path d="M0 0 C0.66 0.33 1.32 0.66 2 1 C0.515 2.2065625 0.515 2.2065625 -1 3.4375 C-2.485 4.7059375 -2.485 4.7059375 -4 6 C-4 6.33 -4 6.66 -4 7 C-6.31 7.33 -8.62 7.66 -11 8 C-7.6378363 4.34117479 -4.63949148 1.85579659 0 0 Z " fill="#C62176" transform="translate(195,29)"/>
<path d="M0 0 C5.452999 1.56818272 9.76486783 3.03810217 14 7 C12.68 7 11.36 7 10 7 C10 6.34 10 5.68 10 5 C8.68 5 7.36 5 6 5 C6 4.34 6 3.68 6 3 C4.35 3.33 2.7 3.66 1 4 C0.67 2.68 0.34 1.36 0 0 Z " fill="#C72073" transform="translate(459,26)"/>
<path d="M0 0 C0.99 0.99 1.98 1.98 3 3 C1.61122646 6.35620271 0.08322035 8.07298728 -3 10 C-3.66 10 -4.32 10 -5 10 C-5.33 8.68 -5.66 7.36 -6 6 C-5.01 6 -4.02 6 -3 6 C-2.01 5.67 -1.02 5.34 0 5 C0 3.35 0 1.7 0 0 Z " fill="#C92070" transform="translate(484,45)"/>
<path d="M0 0 C1.33332095 2.6666419 0.67102033 4.16680303 0 7 C-0.804375 7.12375 -1.60875 7.2475 -2.4375 7.375 C-3.7059375 7.684375 -3.7059375 7.684375 -5 8 C-5.33 8.66 -5.66 9.32 -6 10 C-6.66 10 -7.32 10 -8 10 C-6.34908222 5.70761377 -3.26245434 3.1206085 0 0 Z " fill="#CD1B75" transform="translate(183,37)"/>
<path d="M0 0 C-2.96687001 1.64826111 -5.65626525 2.44271087 -9 3 C-9 3.66 -9 4.32 -9 5 C-9.66 5 -10.32 5 -11 5 C-11.33 5.99 -11.66 6.98 -12 8 C-12.33 6.68 -12.66 5.36 -13 4 C-11.40233897 3.13372601 -9.79660056 2.28233535 -8.1875 1.4375 C-7.29417969 0.96183594 -6.40085937 0.48617188 -5.48046875 -0.00390625 C-3 -1 -3 -1 0 0 Z " fill="#C5216F" transform="translate(682,30)"/>
<path d="M0 0 C2.31 0.33 4.62 0.66 7 1 C7 2.98 7 4.96 7 7 C5.35 6.67 3.7 6.34 2 6 C2.33 5.34 2.66 4.68 3 4 C2.01 3.34 1.02 2.68 0 2 C0 1.34 0 0.68 0 0 Z " fill="#DC1880" transform="translate(798,15)"/>
<path d="M0 0 C0.98484375 0.00902344 1.9696875 0.01804687 2.984375 0.02734375 C4.10585938 0.04474609 4.10585938 0.04474609 5.25 0.0625 C5.25 0.3925 5.25 0.7225 5.25 1.0625 C4.29287109 1.15337891 4.29287109 1.15337891 3.31640625 1.24609375 C2.49011719 1.32988281 1.66382813 1.41367187 0.8125 1.5 C-0.42306641 1.62181641 -0.42306641 1.62181641 -1.68359375 1.74609375 C-3.73662025 1.85180815 -3.73662025 1.85180815 -4.75 3.0625 C-6.26928038 3.13429964 -7.79167482 3.14642007 -9.3125 3.125 C-10.13878906 3.11597656 -10.96507812 3.10695313 -11.81640625 3.09765625 C-12.45449219 3.08605469 -13.09257812 3.07445312 -13.75 3.0625 C-9.03766698 0.53803588 -5.340499 -0.06357737 0 0 Z " fill="#C82275" transform="translate(445.75,23.9375)"/>
<path d="M0 0 C-2.91765 1.9451 -4.62537285 2.45276317 -8 3 C-8.33 1.68 -8.66 0.36 -9 -1 C-5.23375329 -2.25541557 -3.62811066 -1.37061958 0 0 Z " fill="#D01C77" transform="translate(370,150)"/>
<path d="M0 0 C1.99097846 2.98646769 2.94124926 5.59687262 4 9 C1 11 1 11 -2 11 C-2 10.34 -2 9.68 -2 9 C-1.01 9 -0.02 9 1 9 C0.67 6.03 0.34 3.06 0 0 Z " fill="#C02874" transform="translate(382,136)"/>
<path d="M0 0 C0.33 0 0.66 0 1 0 C1.20496094 0.68707031 1.40992188 1.37414062 1.62109375 2.08203125 C1.89050781 2.98308594 2.15992188 3.88414062 2.4375 4.8125 C2.83775391 6.15248047 2.83775391 6.15248047 3.24609375 7.51953125 C3.80387873 9.35473055 4.39344575 11.18033726 5 13 C4.01 13.33 3.02 13.66 2 14 C2 12.35 2 10.7 2 9 C1.34 9 0.68 9 0 9 C0 6.03 0 3.06 0 0 Z " fill="#C2246C" transform="translate(145,133)"/>
<path d="M0 0 C0.66 0.33 1.32 0.66 2 1 C1.01 2.485 1.01 2.485 0 4 C-0.66 4 -1.32 4 -2 4 C-1.67 6.31 -1.34 8.62 -1 11 C-5 6.63636364 -5 6.63636364 -5 3.8125 C-3.69798361 1.45259529 -2.53180937 0.84393646 0 0 Z " fill="#C52676" transform="translate(510,31)"/>
<path d="M0 0 C-1.39332574 3.36720387 -2.9789286 4.9859524 -6 7 C-6 5.02 -6 3.04 -6 1 C-3 0 -3 0 0 0 Z " fill="#CC1F74" transform="translate(482,165)"/>
<path d="M0 0 C2 0 2 0 3.9375 1.625 C6.21172152 4.24380054 7.56952614 6.85295751 9 10 C5.19510255 8.50521886 3.33809165 6.30557786 1 3 C0.67 2.01 0.34 1.02 0 0 Z " fill="#C81E6F" transform="translate(119,144)"/>
<path d="M0 0 C2.475 0.495 2.475 0.495 5 1 C5 2.65 5 4.3 5 6 C5.66 6 6.32 6 7 6 C6.67 6.99 6.34 7.98 6 9 C4.99712471 7.68969568 3.99777175 6.37669473 3 5.0625 C2.443125 4.33160156 1.88625 3.60070312 1.3125 2.84765625 C0 1 0 1 0 0 Z " fill="#CB2275" transform="translate(407,131)"/>
<path d="M0 0 C0.33 1.32 0.66 2.64 1 4 C-0.2065625 4.8971875 -0.2065625 4.8971875 -1.4375 5.8125 C-4.22327984 7.80947276 -4.22327984 7.80947276 -5 11 C-5.66 11 -6.32 11 -7 11 C-5.5140084 6.40693504 -3.14985318 3.56430755 0 0 Z " fill="#C02973" transform="translate(732,39)"/>
<path d="M0 0 C6.57142857 5 6.57142857 5 8 10 C6.2925002 8.71937515 4.62626404 7.38232443 3 6 C3 5.34 3 4.68 3 4 C1.68 3.67 0.36 3.34 -1 3 C-0.67 2.01 -0.34 1.02 0 0 Z " fill="#C22471" transform="translate(133,29)"/>
<path d="M0 0 C2.64 1.98 5.28 3.96 8 6 C6.02 6.99 6.02 6.99 4 8 C3.01 7.67 2.02 7.34 1 7 C1 5.68 1 4.36 1 3 C0.67 2.01 0.34 1.02 0 0 Z " fill="#CE1B6F" transform="translate(753,64)"/>
<path d="M0 0 C2.64 0.33 5.28 0.66 8 1 C6.68 2.32 5.36 3.64 4 5 C3.01 4.67 2.02 4.34 1 4 C0.3125 1.9375 0.3125 1.9375 0 0 Z " fill="#D11774" transform="translate(34,46)"/>
<path d="M0 0 C1.45742463 -0.08096803 2.91612807 -0.13917774 4.375 -0.1875 C5.18710938 -0.22230469 5.99921875 -0.25710937 6.8359375 -0.29296875 C7.55007812 -0.19628906 8.26421875 -0.09960938 9 0 C9.66 0.99 10.32 1.98 11 3 C7.37 2.67 3.74 2.34 0 2 C0 1.34 0 0.68 0 0 Z " fill="#CD2076" transform="translate(199,43)"/>
<path d="M0 0 C2 1 2 1 3.125 4.1875 C3.91680237 7.63749602 4.1714979 10.484293 4 14 C3.690625 13.360625 3.38125 12.72125 3.0625 12.0625 C2.1654837 10.06389179 2.1654837 10.06389179 1 9 C0.76807135 7.48530552 0.58784762 5.96245438 0.4375 4.4375 C0.35371094 3.61121094 0.26992188 2.78492188 0.18359375 1.93359375 C0.12300781 1.29550781 0.06242188 0.65742187 0 0 Z " fill="#CD1E75" transform="translate(624,50)"/>
<path d="M0 0 C1.98 0 3.96 0 6 0 C5.67 0.99 5.34 1.98 5 3 C5.39397335 5.63804589 5.39397335 5.63804589 6 8 C1.125 3.375 1.125 3.375 0 0 Z " fill="#D01D71" transform="translate(767,51)"/>
<path d="M0 0 C0.66 0 1.32 0 2 0 C2 0.66 2 1.32 2 2 C1.34 2 0.68 2 0 2 C-0.061875 2.78375 -0.12375 3.5675 -0.1875 4.375 C-0.455625 5.24125 -0.72375 6.1075 -1 7 C-3.5625 8.3125 -3.5625 8.3125 -6 9 C-4.4722133 5.56247993 -2.49818944 2.81046312 0 0 Z " fill="#CD236C" transform="translate(411,39)"/>
<path d="M0 0 C3.36720387 1.39332574 4.9859524 2.9789286 7 6 C6.67 6.66 6.34 7.32 6 8 C3.53199953 6.84826645 1.95216435 5.95216435 0 4 C0 2.68 0 1.36 0 0 Z " fill="#D2176E" transform="translate(369,33)"/>
<path d="M0 0 C-0.33 0.66 -0.66 1.32 -1 2 C-3.35171131 1.40138258 -5.6859378 0.73075648 -8 0 C-8.33 -0.66 -8.66 -1.32 -9 -2 C-5.08496436 -3.59501452 -3.33516624 -2.31608767 0 0 Z " fill="#CF1C74" transform="translate(432,149)"/>
<path d="M0 0 C1.32 0 2.64 0 4 0 C4 0.66 4 1.32 4 2 C4.66 2 5.32 2 6 2 C7.625 4.5 7.625 4.5 9 7 C5.18315774 5.44499019 2.80804268 2.96404505 0 0 Z " fill="#C82275" transform="translate(741,91)"/>
<path d="M0 0 C1.3271261 3.9813783 1.06915913 7.85045227 1 12 C0.01 12 -0.98 12 -2 12 C-1.85831863 10.56208484 -1.71148957 9.1246763 -1.5625 7.6875 C-1.48128906 6.88699219 -1.40007812 6.08648437 -1.31640625 5.26171875 C-1 3 -1 3 0 0 Z " fill="#CD2077" transform="translate(165,64)"/>
<path d="M0 0 C0.66 0.33 1.32 0.66 2 1 C1.835 1.763125 1.67 2.52625 1.5 3.3125 C0.90854604 6.03596236 0.90854604 6.03596236 1 9 C-1.62386487 5.93882432 -2 5.26826873 -2 1 C-1.34 0.67 -0.68 0.34 0 0 Z " fill="#CF2075" transform="translate(2,33)"/>
<path d="M0 0 C2.3125 -0.25 2.3125 -0.25 5 0 C6.8125 2 6.8125 2 8 4 C7.071875 3.79375 6.14375 3.5875 5.1875 3.375 C1.84826598 2.63307034 1.84826598 2.63307034 -1 5 C-0.67 3.35 -0.34 1.7 0 0 Z " fill="#D41476" transform="translate(23,27)"/>
<path d="M0 0 C0.33 0.66 0.66 1.32 1 2 C-2.63 2 -6.26 2 -10 2 C-6.71040588 -1.28959412 -4.28188612 -1.23949335 0 0 Z " fill="#CE2273" transform="translate(532,25)"/>
<path d="M0 0 C0.33 0.66 0.66 1.32 1 2 C0.0625 4.625 0.0625 4.625 -1 7 C-2.32 6.34 -3.64 5.68 -5 5 C-3.35 3.35 -1.7 1.7 0 0 Z " fill="#D3176E" transform="translate(244,125)"/>
<path d="M0 0 C1 1.33333333 2 2.66666667 3 4 C3.556875 4.70125 4.11375 5.4025 4.6875 6.125 C6 8 6 8 6 10 C4.68 9.67 3.36 9.34 2 9 C1.34 6.03 0.68 3.06 0 0 Z " fill="#C82074" transform="translate(747,54)"/>
<path d="M0 0 C2.25245881 2.68841859 3.88213958 4.64641875 5 8 C3.02 8.99 3.02 8.99 1 10 C1.33 8.02 1.66 6.04 2 4 C1.34 4 0.68 4 0 4 C0 2.68 0 1.36 0 0 Z " fill="#BB2472" transform="translate(793,43)"/>
<path d="M0 0 C-1.36983503 3.16115776 -1.9890638 3.9927092 -5 6 C-5.33 4.68 -5.66 3.36 -6 2 C-3 0 -3 0 0 0 Z " fill="#D01D77" transform="translate(598,44)"/>
<path d="M0 0 C-1.0625 1.5 -1.0625 1.5 -3 3 C-6.6875 3.1875 -6.6875 3.1875 -10 3 C-6.84439813 -0.15560187 -4.30999015 -1.43666338 0 0 Z " fill="#C52275" transform="translate(301,27)"/>
<path d="M0 0 C-0.33 2.64 -0.66 5.28 -1 8 C-3.35953094 5.64046906 -3.49141413 4.22104383 -4 1 C-2 0 -2 0 0 0 Z " fill="#D41B7B" transform="translate(404,114)"/>
<path d="M0 0 C2.875 -0.125 2.875 -0.125 6 0 C6.66 0.66 7.32 1.32 8 2 C5.36 2.66 2.72 3.32 0 4 C0 2.68 0 1.36 0 0 Z " fill="#D51677" transform="translate(121,25)"/>
<path d="M0 0 C1.98 1.65 3.96 3.3 6 5 C4.68 5.33 3.36 5.66 2 6 C2 5.34 2 4.68 2 4 C1.34 4 0.68 4 0 4 C0 2.68 0 1.36 0 0 Z " fill="#C81D75" transform="translate(779,86)"/>
<path d="M0 0 C0.99 0 1.98 0 3 0 C2.67 2.31 2.34 4.62 2 7 C1.34 7 0.68 7 0 7 C0 4.69 0 2.38 0 0 Z " fill="#D41770" transform="translate(421,51)"/>
<path d="M0 0 C1.65 1.65 3.3 3.3 5 5 C3.02 5.99 3.02 5.99 1 7 C-0.0625 5.1875 -0.0625 5.1875 -1 3 C-0.67 2.01 -0.34 1.02 0 0 Z " fill="#C81A76" transform="translate(788,37)"/>
</svg>
