<?xml version="1.0" encoding="utf-8"?>
<!-- Generator: Adobe Illustrator 26.4.1, SVG Export Plug-In . SVG Version: 6.00 Build 0)  -->
<svg version="1.1" id="katman_1" xmlns="http://www.w3.org/2000/svg" xmlns:xlink="http://www.w3.org/1999/xlink" x="0px" y="0px"
	 viewBox="0 0 841.9 595.3" style="enable-background:new 0 0 841.9 595.3;" xml:space="preserve">
<style type="text/css">
	.st0{fill:#1F8555;}
	.st1{fill:#87888A;}
	.st2{fill:#AFCCBA;}
	.st3{fill:#C8C7C8;}
</style>
<path class="st0" d="M270.1,262.8v12.8h-30.7v15.6h30.7V304h-30.7v28.7H222v-69.9H270.1z"/>
<path class="st0" d="M330.3,267.3v13.7c-9.3-4.2-16.7-6.3-22.2-6.3c-2.6-0.1-5.2,0.4-7.5,1.6c-0.8,0.4-1.5,1-2,1.7
	c-0.5,0.7-0.8,1.6-0.8,2.5c0,0.7,0.2,1.5,0.6,2.1c0.3,0.7,0.8,1.2,1.4,1.7c1.3,1.2,4.6,2.8,9.8,4.7c4.2,1.5,8.4,3.3,12.4,5.3
	c3.2,1.7,5.9,4,8,6.9c2.3,3.3,3.5,7.2,3.4,11.3c0.1,3-0.5,5.9-1.8,8.6c-1.3,2.7-3.2,5-5.6,6.8c-4.9,3.8-11.4,5.8-19.4,5.8
	c-8.8,0-17.5-2.4-25.2-6.8v-15.1c3.9,2.7,8,5,12.4,6.9c3.6,1.4,7.5,2.2,11.5,2.2c6.8,0,10.3-2.2,10.3-6.5c0-0.8-0.2-1.6-0.6-2.3
	c-0.4-0.7-0.9-1.3-1.5-1.9c-1.4-1.3-4.7-2.9-9.9-4.8c-4.2-1.5-8.4-3.2-12.4-5.2c-3.1-1.7-5.8-4-7.9-6.9c-2.3-3.3-3.5-7.3-3.3-11.4
	c-0.1-2.8,0.6-5.6,1.8-8.2c1.3-2.5,3.1-4.7,5.4-6.4c4.8-3.7,11.3-5.5,19.4-5.5C314.8,262,322.9,263.9,330.3,267.3"/>
<path class="st0" d="M391.2,267.3v13.7c-9.3-4.2-16.7-6.3-22.2-6.3c-2.6-0.1-5.2,0.4-7.5,1.6c-0.8,0.4-1.5,1-2,1.7
	c-0.5,0.7-0.8,1.6-0.8,2.5c0,0.7,0.2,1.5,0.6,2.1c0.3,0.7,0.8,1.2,1.4,1.7c1.3,1.2,4.6,2.8,9.8,4.7c4.2,1.5,8.4,3.3,12.4,5.3
	c3.2,1.7,5.9,4,8,6.9c2.3,3.3,3.5,7.2,3.4,11.3c0.1,3-0.5,5.9-1.8,8.6c-1.3,2.7-3.2,5-5.6,6.8c-4.9,3.8-11.4,5.8-19.4,5.8
	c-8.8,0-17.5-2.4-25.2-6.8v-15.1c3.9,2.7,8,5,12.4,6.9c3.6,1.4,7.5,2.2,11.5,2.2c6.8,0,10.3-2.2,10.3-6.5c0-0.8-0.2-1.6-0.6-2.3
	c-0.4-0.7-0.9-1.3-1.5-1.9c-1.4-1.3-4.7-2.9-9.9-4.8c-4.2-1.5-8.4-3.2-12.4-5.2c-3.1-1.7-5.8-4-7.9-6.9c-2.3-3.3-3.5-7.3-3.3-11.4
	c-0.1-2.8,0.6-5.6,1.8-8.2c1.3-2.5,3.1-4.7,5.4-6.4c4.8-3.7,11.3-5.5,19.4-5.5C375.7,262,383.8,263.9,391.2,267.3"/>
<path class="st0" d="M469.8,311.4v15.3c-8.4,4.6-17.9,7-27.5,7c-12.4,0-22.3-3.4-29.7-10.3c-3.5-3.3-6.3-7.2-8.2-11.6
	c-1.9-4.4-2.9-9.2-2.8-14c0.1-4.8,1.1-9.5,3.1-13.9c2-4.4,4.9-8.3,8.5-11.4c7.8-7,17.9-10.5,30.4-10.5c10,0,18.4,2.1,25.3,6.2v15.6
	c-8.5-4.8-16.5-7.2-24.1-7.2c-7.4,0-13.5,2-18.2,6c-2.3,1.8-4.1,4.2-5.3,6.8s-1.8,5.5-1.8,8.4c-0.1,2.9,0.5,5.8,1.7,8.5
	c1.2,2.7,3,5,5.2,6.9c4.7,4,10.6,6.1,17.9,6.1c3.5,0,7-0.5,10.4-1.4C460,315.9,465,313.8,469.8,311.4"/>
<path class="st1" d="M541.6,323.6c0.4,0,0.7,0.1,1.1,0.2c0.3,0.1,0.6,0.3,0.9,0.6c0.3,0.3,0.5,0.6,0.6,0.9c0.1,0.3,0.2,0.7,0.2,1.1
	v1.8c0,0.4-0.1,0.7-0.2,1.1c-0.1,0.3-0.3,0.6-0.6,0.9c-0.3,0.3-0.6,0.5-0.9,0.6c-0.3,0.1-0.7,0.2-1.1,0.2h-42.1
	c-0.4,0-0.7-0.1-1.1-0.2c-0.3-0.1-0.6-0.4-0.9-0.6c-0.5-0.5-0.8-1.2-0.8-2c0-1.5,0.2-3,0.6-4.5c0.3-1.4,0.8-2.7,1.5-4
	c0.7-1.1,1.4-2.2,2.2-3.3c0.9-1.2,1.8-2.2,2.8-3.3c1.1-1.1,2.2-2.1,3.3-3c1.1-0.9,2.3-1.8,3.5-2.7c1.2-0.8,2.3-1.7,3.5-2.5
	c1.2-0.8,2.4-1.6,3.5-2.4c2.4-1.6,4.7-3.2,6.8-4.9c2.1-1.7,4.1-3.4,6-5.2c1.5-1.5,2.7-3.2,3.6-5.1c0.8-1.8,1.3-3.8,1.3-5.8
	c0-1.8-0.3-3.6-1-5.3c-0.6-1.5-1.6-2.8-2.8-3.8c-3.2-2.2-7-3.4-10.8-3.2c-2.4,0-4.8,0.4-7.1,1.2c-1.9,0.7-3.5,1.8-4.8,3.3
	c-2.6,3.6-3.9,8.1-3.7,12.6c0,0.4-0.1,0.7-0.2,1c-0.1,0.3-0.3,0.6-0.6,0.9c-0.3,0.3-0.6,0.5-0.9,0.6c-0.3,0.1-0.7,0.2-1,0.2h-1.9
	c-0.4,0-0.7-0.1-1-0.2c-0.3-0.1-0.6-0.3-0.9-0.6c-0.3-0.3-0.5-0.6-0.6-0.9c-0.1-0.3-0.2-0.7-0.2-1c0.1-16,7.7-24.1,22.9-24.3
	c2.8,0,5.7,0.4,8.4,1.2c2.5,0.8,4.8,2,7,3.5c4.3,3.4,6.5,8.4,6.6,14.9c-0.1,2.8-0.7,5.6-1.8,8.1c-1.2,2.6-2.8,5-4.7,7.1
	c-2,2.1-4.1,4-6.3,5.9c-2.3,1.9-4.6,3.7-7.1,5.3h0c-4.5,3-8.8,6.1-12.9,9.6h0.1c-2.1,1.7-3.8,3.8-5,6.2H541.6z"/>
<path class="st1" d="M597.5,323.6c0.4,0,0.7,0.1,1.1,0.2c0.3,0.1,0.6,0.3,0.9,0.6c0.3,0.3,0.5,0.6,0.6,0.9c0.1,0.3,0.2,0.7,0.2,1.1
	v1.8c0,0.4-0.1,0.7-0.2,1.1c-0.1,0.3-0.3,0.6-0.6,0.9c-0.3,0.3-0.6,0.5-0.9,0.6c-0.3,0.1-0.7,0.2-1.1,0.2h-42.1
	c-0.4,0-0.7-0.1-1.1-0.2c-0.3-0.1-0.6-0.4-0.9-0.6c-0.5-0.5-0.8-1.2-0.8-2c0-1.5,0.2-3,0.5-4.5c0.3-1.4,0.8-2.7,1.5-4
	c0.7-1.1,1.4-2.2,2.2-3.3c0.9-1.2,1.8-2.2,2.8-3.3c1.1-1.1,2.2-2.1,3.3-3c1.1-0.9,2.3-1.8,3.5-2.7c1.2-0.8,2.3-1.7,3.5-2.5
	c1.2-0.8,2.4-1.6,3.5-2.4c2.4-1.6,4.7-3.2,6.8-4.9c2.1-1.7,4.1-3.4,6-5.2c1.5-1.5,2.7-3.2,3.6-5.1c0.8-1.8,1.3-3.8,1.3-5.8
	c0-1.8-0.3-3.6-1-5.3c-0.6-1.5-1.6-2.8-2.8-3.8c-3.2-2.2-7-3.4-10.8-3.2c-2.4,0-4.8,0.4-7.1,1.2c-1.9,0.7-3.5,1.8-4.8,3.3
	c-2.6,3.6-3.9,8.1-3.7,12.6c0,0.4-0.1,0.7-0.2,1c-0.1,0.3-0.3,0.6-0.6,0.9c-0.3,0.3-0.6,0.5-0.9,0.6c-0.3,0.1-0.7,0.2-1,0.2h-1.9
	c-0.4,0-0.7-0.1-1-0.2c-0.3-0.1-0.6-0.3-0.9-0.6c-0.3-0.3-0.5-0.6-0.6-0.9c-0.1-0.3-0.2-0.7-0.2-1c0.1-16,7.7-24.1,22.9-24.3
	c2.8,0,5.7,0.4,8.4,1.2c2.5,0.8,4.8,2,7,3.5c4.3,3.4,6.5,8.4,6.6,14.9c-0.1,2.8-0.7,5.6-1.8,8.1c-1.2,2.6-2.8,5-4.7,7.1
	c-2,2.1-4.1,4-6.3,5.9c-2.3,1.9-4.6,3.7-7.1,5.3h0c-4.5,3-8.8,6.1-12.9,9.6h0.1c-2.1,1.7-3.8,3.8-5,6.2H597.5z"/>
<path class="st1" d="M658.2,296.9c0.1,4.2-0.4,8.3-1.3,12.4c-0.9,3.8-2.2,7.4-4.1,10.8c-1.9,3.6-4.8,6.6-8.3,8.7
	c-3.9,2.1-8.3,3.3-12.7,3.3c-4.4,0-8.7-1.1-12.6-3.3c-3.5-2-6.4-5-8.3-8.6c-1.9-3.4-3.3-7.1-4.2-10.9c-1-4-1.4-8.2-1.3-12.3
	c-0.1-4.2,0.4-8.3,1.3-12.4c0.9-3.8,2.3-7.5,4.2-11c1.9-3.6,4.7-6.6,8.3-8.6c3.9-2.1,8.2-3.2,12.6-3.2c4.4,0,8.8,1.1,12.7,3.2
	c3.5,2,6.4,5,8.3,8.5c1.8,3.5,3.2,7.2,4.1,11C657.8,288.6,658.3,292.8,658.2,296.9 M651,296.9c0-1.7-0.1-3.4-0.3-5.1
	c-0.2-1.8-0.4-3.5-0.7-5.2c-0.3-1.6-0.7-3.2-1.3-4.7c-0.5-1.5-1.2-2.9-1.9-4.3c-2.8-5.6-7.8-8.4-15-8.6c-3.2-0.1-6.3,0.7-9.1,2.4
	h0.1c-1.2,0.8-2.3,1.7-3.3,2.8c-1,1.1-1.9,2.3-2.6,3.6c-0.8,1.3-1.4,2.7-1.9,4.2c-0.5,1.6-0.9,3.2-1.2,4.8c-1.5,6.6-1.5,13.5,0,20.1
	c0.3,1.6,0.6,3.2,1.2,4.8c0.5,1.5,1.2,3,1.9,4.4c1.3,2.6,3.3,4.7,5.7,6.2c1.2,0.9,2.6,1.5,4.1,1.9c1.6,0.4,3.3,0.6,5,0.6
	c1.7,0,3.4-0.2,5.1-0.6c1.5-0.4,2.8-1,4-1.9c1.2-0.7,2.3-1.6,3.3-2.7c1-1.1,1.8-2.3,2.5-3.5c0.8-1.4,1.5-2.8,2-4.4
	c0.5-1.6,0.9-3.1,1.2-4.8c0.3-1.7,0.5-3.3,0.7-5C650.9,300.2,651,298.6,651,296.9"/>
<path class="st1" d="M714.2,296.9c0.1,4.2-0.4,8.3-1.3,12.4c-0.9,3.8-2.2,7.4-4.1,10.8c-1.9,3.6-4.8,6.6-8.3,8.7
	c-3.9,2.1-8.3,3.3-12.7,3.3c-4.4,0-8.7-1.1-12.6-3.3c-3.5-2-6.4-5-8.3-8.6c-1.9-3.4-3.3-7.1-4.2-10.9c-1-4-1.4-8.2-1.3-12.3
	c-0.1-4.2,0.4-8.3,1.3-12.4c0.9-3.8,2.3-7.5,4.2-11c1.9-3.6,4.7-6.6,8.3-8.6c3.9-2.1,8.2-3.2,12.6-3.2c4.4,0,8.8,1.1,12.7,3.2
	c3.5,2,6.4,5,8.3,8.5c1.8,3.5,3.2,7.2,4.1,11C713.8,288.6,714.3,292.8,714.2,296.9 M707,296.9c0-1.7-0.1-3.4-0.3-5.1
	c-0.2-1.8-0.4-3.5-0.7-5.2c-0.3-1.6-0.7-3.2-1.3-4.7c-0.5-1.5-1.2-2.9-1.9-4.3c-2.8-5.6-7.8-8.4-15-8.6c-3.2-0.1-6.3,0.7-9.1,2.4
	h0.1c-1.2,0.8-2.3,1.7-3.3,2.8c-1,1.1-1.9,2.3-2.6,3.6c-0.8,1.3-1.4,2.7-1.9,4.2c-0.5,1.6-0.9,3.2-1.1,4.8c-1.5,6.6-1.5,13.5,0,20.1
	c0.3,1.6,0.6,3.2,1.2,4.8c0.5,1.5,1.2,3,1.9,4.4c1.3,2.6,3.3,4.7,5.7,6.2c1.2,0.9,2.6,1.5,4.1,1.9c1.6,0.4,3.3,0.6,5,0.6
	c1.7,0,3.4-0.2,5.1-0.6c1.5-0.4,2.8-1,4-1.9c1.2-0.7,2.3-1.6,3.3-2.7c1-1.1,1.8-2.3,2.5-3.5c0.8-1.4,1.5-2.8,2-4.4
	c0.5-1.6,0.9-3.1,1.2-4.8c0.3-1.7,0.5-3.3,0.7-5C706.9,300.2,706.9,298.6,707,296.9"/>
<path class="st1" d="M770.2,296.9c0.1,4.2-0.4,8.3-1.3,12.4c-0.9,3.8-2.2,7.4-4.1,10.8c-1.9,3.6-4.8,6.6-8.3,8.7
	c-3.9,2.1-8.3,3.3-12.7,3.3c-4.4,0-8.7-1.1-12.6-3.3c-3.5-2-6.4-5-8.3-8.6c-1.9-3.4-3.3-7.1-4.2-10.9c-1-4-1.4-8.2-1.3-12.3
	c-0.1-4.2,0.4-8.3,1.3-12.4c0.9-3.8,2.3-7.5,4.2-11c1.9-3.6,4.7-6.6,8.3-8.6c3.9-2.1,8.2-3.2,12.6-3.2c4.4,0,8.8,1.1,12.7,3.2
	c3.5,2,6.4,5,8.3,8.5c1.8,3.5,3.2,7.2,4.1,11C769.8,288.6,770.2,292.8,770.2,296.9 M762.9,296.9c0-1.7-0.1-3.4-0.3-5.1
	c-0.2-1.8-0.4-3.5-0.7-5.2c-0.3-1.6-0.7-3.2-1.3-4.7c-0.5-1.5-1.2-2.9-1.9-4.3c-2.8-5.6-7.8-8.4-15-8.6c-3.2-0.1-6.3,0.7-9.1,2.4
	h0.1c-1.2,0.8-2.3,1.7-3.3,2.8c-1,1.1-1.9,2.3-2.6,3.6c-0.8,1.3-1.4,2.7-1.9,4.2c-0.5,1.6-0.9,3.2-1.2,4.8c-1.5,6.6-1.5,13.5,0,20.1
	c0.3,1.6,0.6,3.2,1.2,4.8c0.5,1.5,1.2,3,1.9,4.4c1.3,2.6,3.3,4.7,5.7,6.2c1.2,0.9,2.6,1.5,4.1,1.9c1.6,0.4,3.3,0.6,5,0.6
	c1.7,0,3.4-0.2,5.1-0.6c1.5-0.4,2.8-1,4-1.9c1.2-0.7,2.3-1.6,3.3-2.7c1-1.1,1.8-2.3,2.5-3.5c0.8-1.4,1.5-2.8,2-4.4
	c0.5-1.6,0.9-3.1,1.2-4.8c0.3-1.7,0.5-3.3,0.7-5C762.8,300.2,762.9,298.6,762.9,296.9"/>
<path class="st0" d="M182.2,252c-20.5-21-51.9-24.7-77.1-9.8c-29.4,17.4-36.6,56.5-19.1,84.6c0.4,0.7,2.6,0,2.3-0.8
	c-2.8-9-3.5-18.5-2.1-27.9c1.5-9.3,5.1-18.2,10.5-25.9c4.1-6.9,9.5-12.8,16-17.6c6.5-4.7,13.8-8.1,21.6-9.9c7.8-1.8,15.9-2,23.7-0.6
	s15.4,4.4,22,8.8C180.7,253.4,183,252.7,182.2,252"/>
<path class="st2" d="M185,243.4c-9.1-5.4-21.2-3.5-30.7-0.6c-0.1,0-0.1,0-0.2,0.1c0,0-0.1,0-0.1,0c-22.8,8-48.7,29.8-46.8,56.3
	c0.1,0.7,2.3,0,2.4-0.5c5.4-17.3,19.2-30.6,34.9-38.8c15.8-8.3,43.3-10.9,47.2,11.8c0.1,0.7,2.3,0.1,2.4-0.5
	C196.8,260.3,195.3,249.6,185,243.4"/>
<path class="st1" d="M185.8,274.6c-1.7-2-2.2-2.6-4-4.5c-0.6-0.6-2.8-0.1-2.2,1c5.6,9.1,8.2,19.6,7.7,30.2
	c-0.5,10.6-4.3,20.8-10.7,29.3c-7.9,10.6-20.3,17.1-33.2,19.1c-13.6,2.2-26.9-3-38.9-8.7c-0.8-0.4-2.7,0.2-1.8,1.3
	c18.2,20.3,50.3,25.4,72.6,8.4c5.7-4.3,10.6-9.6,14.2-15.8c3.6-6.2,6-13,7-20.1c1-7.1,0.5-14.3-1.3-21.2
	C193.3,286.7,190.1,280.2,185.8,274.6"/>
<path class="st3" d="M170.9,295.5c-0.1-0.8-2.3-0.5-2.5,0.2c-2.7,13.6-11,25-21.3,34c-13.3,11.6-43.4,22.8-50.4-0.8
	c-0.2-0.8-2.4-0.5-2.5,0.3c-3,24.2,18,30,37.2,23.1c20.4-7.3,39.9-29.1,40.2-51.4C171.5,299.1,171.3,297.3,170.9,295.5"/>
</svg>
